<svg width="134" height="126" viewBox="0 0 134 126" fill="none" xmlns="http://www.w3.org/2000/svg">
<g clip-path="url(#clip0)">
<path d="M10.7108 41.7181L10.7864 43.5318C11.9861 42.1211 13.6041 41.4158 15.6405 41.4158C17.929 41.4158 19.4865 42.2924 20.3132 44.0457C20.8576 43.2597 21.5633 42.625 22.4303 42.1413C23.3073 41.6577 24.3407 41.4158 25.5303 41.4158C29.1192 41.4158 30.944 43.3152 31.0044 47.114V58.072H28.2068V47.2802C28.2068 46.1113 27.9397 45.2398 27.4054 44.6654C26.8711 44.081 25.9738 43.7888 24.7137 43.7888C23.6753 43.7888 22.8134 44.1012 22.1278 44.7259C21.4423 45.3406 21.0441 46.1719 20.9332 47.2198V58.072H18.1205V47.3558C18.1205 44.9778 16.9561 43.7888 14.6274 43.7888C12.7926 43.7888 11.5375 44.5697 10.862 46.1315V58.072H8.06445V41.7181H10.7108ZM40.5917 53.9759L44.4024 41.7181H47.3966L40.8186 60.5961C39.8003 63.3167 38.1823 64.677 35.9644 64.677L35.4352 64.6317L34.3917 64.4352V62.168L35.1478 62.2285C36.0954 62.2285 36.8314 62.037 37.3556 61.6541C37.8899 61.2712 38.3284 60.5709 38.6712 59.5532L39.2912 57.8906L33.4541 41.7181H36.5088L40.5917 53.9759ZM50.3454 58.072V36.0652H57.5434C59.9326 36.0652 61.7271 36.559 62.9268 37.5465C64.1365 38.5339 64.7414 39.995 64.7414 41.9297C64.7414 42.9575 64.449 43.8694 63.8643 44.6654C63.2797 45.4514 62.4832 46.0609 61.4751 46.4943C62.6647 46.8268 63.6023 47.4616 64.2877 48.3987C64.9833 49.3257 65.3312 50.4341 65.3312 51.7239C65.3312 53.6989 64.691 55.2507 63.4107 56.3791C62.1304 57.5078 60.3208 58.072 57.982 58.072H50.3454ZM53.2488 47.779V55.699H58.0424C59.3933 55.699 60.4569 55.3513 61.2331 54.6561C62.0195 53.9507 62.4126 52.9834 62.4126 51.7541C62.4126 49.104 60.9711 47.779 58.0878 47.779H53.2488ZM53.2488 45.4514H57.6342C58.9043 45.4514 59.9176 45.1339 60.6737 44.4991C61.4398 43.8644 61.8229 43.0028 61.8229 41.9146C61.8229 40.7054 61.47 39.8288 60.7643 39.2846C60.0587 38.7305 58.985 38.4533 57.5434 38.4533H53.2488V45.4514ZM79.3038 58.072C79.1425 57.7495 79.0115 57.1752 78.9107 56.3489C77.6102 57.6992 76.0577 58.3743 74.2531 58.3743C72.6401 58.3743 71.3144 57.9208 70.2761 57.0139C69.2478 56.097 68.7336 54.9383 68.7336 53.5377C68.7336 51.8347 69.3788 50.5147 70.6692 49.5776C71.9697 48.6304 73.7944 48.1569 76.1434 48.1569H78.8653V46.8721C78.8653 45.8947 78.5729 45.1188 77.9882 44.5445C77.4035 43.9601 76.5416 43.6678 75.4024 43.6678C74.4043 43.6678 73.5675 43.9197 72.8921 44.4236C72.2167 44.9274 71.8789 45.537 71.8789 46.2524H69.0663C69.0663 45.4363 69.3536 44.6503 69.9283 43.8945C70.513 43.1288 71.2993 42.5242 72.2873 42.0808C73.2853 41.6374 74.3791 41.4158 75.5687 41.4158C77.4539 41.4158 78.9308 41.8894 79.9994 42.8365C81.0681 43.7737 81.6225 45.0685 81.6629 46.721V54.248C81.6629 55.7494 81.8544 56.9434 82.2375 57.8302V58.072H79.3038ZM74.6614 55.9409C75.5385 55.9409 76.3702 55.7141 77.1565 55.2607C77.9429 54.8072 78.5125 54.2178 78.8653 53.4923V50.1369H76.6726C73.2449 50.1369 71.5312 51.1395 71.5312 53.1446C71.5312 54.0213 71.8235 54.7065 72.4082 55.2003C72.993 55.694 73.744 55.9409 74.6614 55.9409ZM89.0878 58.072H86.2902V34.8561H89.0878V58.072ZM96.6185 58.072H93.821V34.8561H96.6185V58.072ZM100.368 49.7439C100.368 48.1418 100.682 46.7008 101.306 45.4211C101.941 44.1414 102.819 43.154 103.938 42.4587C105.066 41.7634 106.352 41.4158 107.793 41.4158C110.022 41.4158 111.821 42.1866 113.192 43.7283C114.573 45.27 115.264 47.3205 115.264 49.88V50.0764C115.264 51.6684 114.956 53.0993 114.341 54.369C113.736 55.6285 112.865 56.6109 111.725 57.3163C110.596 58.0216 109.295 58.3743 107.824 58.3743C105.606 58.3743 103.806 57.6035 102.425 56.0618C101.054 54.52 100.368 52.4796 100.368 49.9404V49.7439ZM103.182 50.0764C103.182 51.8901 103.6 53.3462 104.437 54.4445C105.283 55.5428 106.413 56.092 107.824 56.092C109.246 56.092 110.374 55.5378 111.211 54.4294C112.047 53.3109 112.466 51.7491 112.466 49.7439C112.466 47.9503 112.038 46.4993 111.181 45.3909C110.334 44.2725 109.205 43.7132 107.793 43.7132C106.413 43.7132 105.299 44.2624 104.451 45.3607C103.605 46.459 103.182 48.0309 103.182 50.0764ZM122.568 37.7581V41.7181H125.623V43.8794H122.568V54.0213C122.568 54.6763 122.704 55.17 122.976 55.5025C123.248 55.8249 123.712 55.9862 124.367 55.9862C124.69 55.9862 125.133 55.9257 125.698 55.8048V58.072C124.962 58.2735 124.246 58.3743 123.551 58.3743C122.3 58.3743 121.358 57.9964 120.722 57.2407C120.088 56.485 119.77 55.4118 119.77 54.0213V43.8794H116.791V41.7181H119.77V37.7581H122.568Z" fill="white"/>
<path d="M54.6352 109.382L62.1231 68.39H73.5458L61.2062 126H49.6688L40.6147 87.4614L31.5606 126H20.0232L7.68359 68.39H19.1063L26.6323 109.303L35.8011 68.39H45.5047L54.6352 109.382ZM109.495 114.13H89.4001L85.5798 126H73.393L94.0987 68.39H104.72L125.54 126H113.353L109.495 114.13ZM92.4949 104.515H106.401L99.4092 82.9508L92.4949 104.515Z" fill="white"/>
<path d="M133.623 27.7214C123.339 24.0066 113.477 20.5113 102.581 18.2213C89.9169 15.5604 77.6565 12.0806 66.0779 6.39724C63.4006 5.68026 60.7327 4.96636 58.0867 4.25556C52.8979 2.86485 47.6841 1.46797 42.4297 0.0648995C42.2608 0.0216332 42.0888 0 41.9199 0C41.457 0 41.0035 0.163794 40.6438 0.469749C40.1528 0.88696 39.9057 1.51741 39.9839 2.15405C40.0464 2.67942 39.9651 3.28824 39.8806 3.93724C39.6867 5.39284 39.3302 8.10317 42.1482 9.293C42.9927 9.65149 43.1928 9.96671 43.2022 10.0316C43.2241 10.2201 42.9395 10.727 42.5016 11.0391C38.5139 13.8823 39.718 17.1273 40.5156 19.2783C40.6407 19.612 40.7658 19.952 40.8784 20.2981C41.1255 21.0584 41.4351 21.8093 41.7322 22.5387C42.7393 24.9987 43.2992 26.5903 42.5673 27.9841C41.7041 29.6313 40.6 31.1611 39.4303 32.7835C38.1792 34.5204 36.8969 36.3036 35.8679 38.3031C35.9023 38.1238 35.9335 37.9446 35.9679 37.7684C36.4058 35.3795 36.8187 33.1235 38.0322 30.988C39.2019 28.9266 39.4365 26.204 38.6327 24.0561C37.9978 22.3625 36.7373 21.1016 35.0891 20.5083C26.7101 17.4951 19.285 13.0417 12.5043 8.678C12.2259 8.49875 11.8787 8.18661 11.5097 7.85284C10.5057 6.94734 9.25152 5.81933 7.57822 5.81933C6.81507 5.81933 6.08946 6.05729 5.42639 6.52395C3.08691 8.16498 2.83044 11.4872 2.83982 13.8421C2.84921 15.8695 3.32148 17.6341 3.78438 19.0928L3.90635 19.4699C4.64135 21.7784 5.33256 23.9603 4.73518 25.966C4.06274 28.222 4.2848 30.3699 4.49435 32.4436C4.71642 34.6285 4.91033 36.5168 4.06899 38.2722C3.58733 39.2766 3.5154 40.213 3.85944 41.0505C4.38489 42.3361 5.60154 42.7904 6.40535 43.0933C6.46478 43.1149 6.53671 43.1427 6.60865 43.1706L6.37407 43.2478C4.50686 43.8597 3.27457 44.2646 2.89299 45.6491C2.51142 47.0336 3.36214 47.9948 4.65074 49.4473L4.73518 49.5431C5.30129 50.1828 5.40763 51.4313 4.98852 52.5748C4.72893 53.2856 4.19723 54.086 3.48099 54.2004C3.36527 54.2189 3.24955 54.222 3.14633 54.2251C2.55833 54.256 0.766188 54.3425 0.175062 56.3699C-0.584959 58.9813 1.31353 60.0444 2.34878 60.5327C2.42385 60.5667 2.49578 60.6007 2.55833 60.6285C3.44659 61.0365 4.33797 61.4908 5.22622 61.9976C6.14576 62.1243 7.19352 62.5199 8.36013 63.1843C10.4025 64.3463 11.7818 66.7507 14.5998 66.4726C15.3004 67.5573 16.3075 67.7428 17.4898 67.4214C17.1457 69.3776 17.912 71.2659 17.6899 73.3148C17.4303 75.7316 16.4326 78.5593 18.4718 80.8525C18.5 81.4891 18.8347 81.826 19.4727 81.8661C20.3891 83.2908 21.6464 84.048 23.426 83.7791C23.4104 83.7637 23.3948 83.7513 23.3791 83.7359C30.7573 85.3985 38.4576 84.7248 45.7794 86.78C47.018 88.0347 48.6162 87.0396 50.0424 87.1137C50.1612 87.1199 50.2801 87.1323 50.3958 87.157C50.6273 87.2033 50.8556 87.2837 51.0745 87.4197C51.184 87.4877 51.2903 87.568 51.3935 87.6638C52.4476 87.6576 53.5016 87.6515 54.5556 87.6453C54.934 88.5848 55.6096 89.2307 56.5667 89.5954L56.5104 89.549C56.5385 89.5737 56.5667 89.5954 56.5667 89.5954C56.5698 89.5768 56.5698 89.5645 56.5729 89.549C59.6349 90.7914 62.6938 92.0121 65.2334 88.6095C68.4987 88.9093 71.7671 89.5459 75.0324 88.625C76.0082 90.1455 77.5845 89.3821 78.9107 89.5645C79.5925 90.7883 81.0187 90.8964 81.7881 90.402C85.3098 88.1336 88.6627 89.9013 91.9749 90.6461C100.97 92.6735 109.784 95.4765 118.898 97.0248C118.92 97.065 118.942 97.1082 118.963 97.1515C119.264 97.0372 119.561 96.8796 119.849 96.6787C119.858 95.5816 119.867 94.4875 119.877 93.3904C121.294 92.1234 121.294 90.8563 119.877 89.5892C119.877 88.6157 119.877 87.6453 119.88 86.6718C121.684 86.1866 121.444 84.5579 121.734 83.2568C124.997 68.7132 128.237 54.1633 131.487 39.6165C130.942 37.6634 131.211 35.8091 131.684 33.9826C131.968 32.8855 132.325 31.7977 132.622 30.7037C133.989 30.0763 133.613 28.9174 133.513 27.8419C133.541 27.7925 133.582 27.7708 133.623 27.7214Z" fill="white" fill-opacity="0.1"/>
</g>
<defs>
<clipPath id="clip0">
<rect width="134" height="126" fill="white"/>
</clipPath>
</defs>
</svg>
