<svg width="144" height="112" viewBox="0 0 144 112" fill="none" xmlns="http://www.w3.org/2000/svg">
<path d="M7.51953 13.9805L7.60742 16.0898C9.00195 14.4492 10.8828 13.6289 13.25 13.6289C15.9102 13.6289 17.7207 14.6484 18.6816 16.6875C19.3145 15.7734 20.1348 15.0352 21.1426 14.4727C22.1621 13.9102 23.3633 13.6289 24.7461 13.6289C28.918 13.6289 31.0391 15.8379 31.1094 20.2559V33H27.8574V20.4492C27.8574 19.0898 27.5469 18.0762 26.9258 17.4082C26.3047 16.7285 25.2617 16.3887 23.7969 16.3887C22.5898 16.3887 21.5879 16.752 20.791 17.4785C19.9941 18.1934 19.5312 19.1602 19.4023 20.3789V33H16.1328V20.5371C16.1328 17.7715 14.7793 16.3887 12.0723 16.3887C9.93945 16.3887 8.48047 17.2969 7.69531 19.1133V33H4.44336V13.9805H7.51953ZM42.2539 28.2363L46.6836 13.9805H50.1641L42.5176 35.9355C41.334 39.0996 39.4531 40.6816 36.875 40.6816L36.2598 40.6289L35.0469 40.4004V37.7637L35.9258 37.834C37.0273 37.834 37.8828 37.6113 38.4922 37.166C39.1133 36.7207 39.623 35.9062 40.0215 34.7227L40.7422 32.7891L33.957 13.9805H37.5078L42.2539 28.2363ZM53.5918 33V7.40625H61.959C64.7363 7.40625 66.8223 7.98047 68.2168 9.12891C69.623 10.2773 70.3262 11.9766 70.3262 14.2266C70.3262 15.4219 69.9863 16.4824 69.3066 17.4082C68.627 18.3223 67.7012 19.0312 66.5293 19.5352C67.9121 19.9219 69.002 20.6602 69.7988 21.75C70.6074 22.8281 71.0117 24.1172 71.0117 25.6172C71.0117 27.9141 70.2676 29.7188 68.7793 31.0312C67.291 32.3438 65.1875 33 62.4688 33H53.5918ZM56.9668 21.0293V30.2402H62.5391C64.1094 30.2402 65.3457 29.8359 66.248 29.0273C67.1621 28.207 67.6191 27.082 67.6191 25.6523C67.6191 22.5703 65.9434 21.0293 62.5918 21.0293H56.9668ZM56.9668 18.3223H62.0645C63.541 18.3223 64.7188 17.9531 65.5977 17.2148C66.4883 16.4766 66.9336 15.4746 66.9336 14.209C66.9336 12.8027 66.5234 11.7832 65.7031 11.1504C64.8828 10.5059 63.6348 10.1836 61.959 10.1836H56.9668V18.3223ZM87.2539 33C87.0664 32.625 86.9141 31.957 86.7969 30.9961C85.2852 32.5664 83.4805 33.3516 81.3828 33.3516C79.5078 33.3516 77.9668 32.8242 76.7598 31.7695C75.5645 30.7031 74.9668 29.3555 74.9668 27.7266C74.9668 25.7461 75.7168 24.2109 77.2168 23.1211C78.7285 22.0195 80.8496 21.4688 83.5801 21.4688H86.7441V19.9746C86.7441 18.8379 86.4043 17.9355 85.7246 17.2676C85.0449 16.5879 84.043 16.248 82.7188 16.248C81.5586 16.248 80.5859 16.541 79.8008 17.127C79.0156 17.7129 78.623 18.4219 78.623 19.2539H75.3535C75.3535 18.3047 75.6875 17.3906 76.3555 16.5117C77.0352 15.6211 77.9492 14.918 79.0977 14.4023C80.2578 13.8867 81.5293 13.6289 82.9121 13.6289C85.1035 13.6289 86.8203 14.1797 88.0625 15.2812C89.3047 16.3711 89.9492 17.877 89.9961 19.7988V28.5527C89.9961 30.2988 90.2188 31.6875 90.6641 32.7188V33H87.2539ZM81.8574 30.5215C82.877 30.5215 83.8438 30.2578 84.7578 29.7305C85.6719 29.2031 86.334 28.5176 86.7441 27.6738V23.7715H84.1953C80.2109 23.7715 78.2188 24.9375 78.2188 27.2695C78.2188 28.2891 78.5586 29.0859 79.2383 29.6602C79.918 30.2344 80.791 30.5215 81.8574 30.5215ZM98.627 33H95.375V6H98.627V33ZM107.381 33H104.129V6H107.381V33ZM111.74 23.3145C111.74 21.4512 112.104 19.7754 112.83 18.2871C113.568 16.7988 114.588 15.6504 115.889 14.8418C117.201 14.0332 118.695 13.6289 120.371 13.6289C122.961 13.6289 125.053 14.5254 126.646 16.3184C128.252 18.1113 129.055 20.4961 129.055 23.4727V23.7012C129.055 25.5527 128.697 27.2168 127.982 28.6934C127.279 30.1582 126.266 31.3008 124.941 32.1211C123.629 32.9414 122.117 33.3516 120.406 33.3516C117.828 33.3516 115.736 32.4551 114.131 30.6621C112.537 28.8691 111.74 26.4961 111.74 23.543V23.3145ZM115.01 23.7012C115.01 25.8105 115.496 27.5039 116.469 28.7812C117.453 30.0586 118.766 30.6973 120.406 30.6973C122.059 30.6973 123.371 30.0527 124.344 28.7637C125.316 27.4629 125.803 25.6465 125.803 23.3145C125.803 21.2285 125.305 19.541 124.309 18.252C123.324 16.9512 122.012 16.3008 120.371 16.3008C118.766 16.3008 117.471 16.9395 116.486 18.2168C115.502 19.4941 115.01 21.3223 115.01 23.7012ZM137.545 9.375V13.9805H141.096V16.4941H137.545V28.2891C137.545 29.0508 137.703 29.625 138.02 30.0117C138.336 30.3867 138.875 30.5742 139.637 30.5742C140.012 30.5742 140.527 30.5039 141.184 30.3633V33C140.328 33.2344 139.496 33.3516 138.688 33.3516C137.234 33.3516 136.139 32.9121 135.4 32.0332C134.662 31.1543 134.293 29.9062 134.293 28.2891V16.4941H130.83V13.9805H134.293V9.375H137.545Z" fill="#333333"/>
<path d="M58.169 92.6717L67.1889 44.9952H80.9488L66.0844 112H52.1864L41.2797 67.1767L30.3731 112H16.4751L1.61069 44.9952H15.3706L24.4365 92.5797L35.4812 44.9952H47.1703L58.169 92.6717ZM124.253 98.1941H100.047L95.445 112H80.7647L105.707 44.9952H118.501L143.582 112H128.901L124.253 98.1941ZM103.775 87.0113H120.526L112.104 61.9305L103.775 87.0113Z" fill="#333333"/>
</svg>
