<svg width="104" height="99" viewBox="0 0 104 99" fill="none" xmlns="http://www.w3.org/2000/svg">
<g filter="url(#filter0_d)">
<path d="M52.5 91C77.629 91 98 70.629 98 45.5C98 20.371 77.629 0 52.5 0C27.371 0 7 20.371 7 45.5C7 70.629 27.371 91 52.5 91Z" fill="#518E71"/>
</g>
<path d="M44.5 29.25V20.5H59.5V29.25" stroke="white" stroke-width="2" stroke-linecap="round" stroke-linejoin="round"/>
<path d="M44.5 40.5H42C41.337 40.5 40.7011 40.2366 40.2322 39.7678C39.7634 39.2989 39.5 38.663 39.5 38V31.75C39.5 31.087 39.7634 30.4511 40.2322 29.9822C40.7011 29.5134 41.337 29.25 42 29.25H62C62.663 29.25 63.2989 29.5134 63.7678 29.9822C64.2366 30.4511 64.5 31.087 64.5 31.75V38C64.5 38.663 64.2366 39.2989 63.7678 39.7678C63.2989 40.2366 62.663 40.5 62 40.5H59.5" stroke="white" stroke-width="2" stroke-linecap="round" stroke-linejoin="round"/>
<path d="M59.5 35.5H44.5V45.5H59.5V35.5Z" stroke="white" stroke-width="2" stroke-linecap="round" stroke-linejoin="round"/>
<path d="M33.4854 62.0376V66H31.6323V55.3359H35.7119C36.9033 55.3359 37.8482 55.646 38.5464 56.2661C39.2495 56.8862 39.6011 57.7065 39.6011 58.7271C39.6011 59.772 39.2569 60.585 38.5684 61.166C37.8848 61.7471 36.9253 62.0376 35.69 62.0376H33.4854ZM33.4854 60.5508H35.7119C36.3711 60.5508 36.874 60.397 37.2207 60.0894C37.5674 59.7769 37.7407 59.3276 37.7407 58.7417C37.7407 58.1655 37.565 57.7065 37.2134 57.3647C36.8618 57.0181 36.3784 56.8398 35.7632 56.8301H33.4854V60.5508ZM45.189 61.8911H43.1236V66H41.2706V55.3359H45.0206C46.251 55.3359 47.2007 55.6118 47.8697 56.1636C48.5386 56.7153 48.8731 57.5137 48.8731 58.5586C48.8731 59.2715 48.6998 59.8696 48.3531 60.353C48.0113 60.8315 47.5328 61.2002 46.9175 61.459L49.3126 65.9048V66H47.3277L45.189 61.8911ZM43.1236 60.4043H45.0279C45.6529 60.4043 46.1412 60.248 46.4927 59.9355C46.8443 59.6182 47.0201 59.186 47.0201 58.6392C47.0201 58.0679 46.8565 57.626 46.5294 57.3135C46.2071 57.001 45.7237 56.8398 45.0792 56.8301H43.1236V60.4043ZM52.63 66H50.7843V55.3359H52.63V66ZM63.4108 66H61.5578L56.8043 58.4341V66H54.9513V55.3359H56.8043L61.5724 62.9312V55.3359H63.4108V66ZM73.1296 56.8301H69.8044V66H67.966V56.8301H64.6701V55.3359H73.1296V56.8301Z" fill="white"/>
<defs>
<filter id="filter0_d" x="3" y="0" width="99" height="99" filterUnits="userSpaceOnUse" color-interpolation-filters="sRGB">
<feFlood flood-opacity="0" result="BackgroundImageFix"/>
<feColorMatrix in="SourceAlpha" type="matrix" values="0 0 0 0 0 0 0 0 0 0 0 0 0 0 0 0 0 0 127 0"/>
<feOffset dy="4"/>
<feGaussianBlur stdDeviation="2"/>
<feColorMatrix type="matrix" values="0 0 0 0 0 0 0 0 0 0 0 0 0 0 0 0 0 0 0.25 0"/>
<feBlend mode="normal" in2="BackgroundImageFix" result="effect1_dropShadow"/>
<feBlend mode="normal" in="SourceGraphic" in2="effect1_dropShadow" result="shape"/>
</filter>
</defs>
</svg>
