<svg width="134" height="126" viewBox="0 0 134 126" fill="none" xmlns="http://www.w3.org/2000/svg">
<path d="M10.7112 41.718L10.7868 43.5317C11.9865 42.121 13.6045 41.4157 15.641 41.4157C17.9295 41.4157 19.487 42.2923 20.3136 44.0456C20.8581 43.2596 21.5637 42.6249 22.4307 42.1412C23.3078 41.6575 24.3411 41.4157 25.5307 41.4157C29.1197 41.4157 30.9444 43.3151 31.0049 47.1139V58.0719H28.2073V47.2801C28.2073 46.1112 27.9401 45.2397 27.4058 44.6653C26.8715 44.0808 25.9743 43.7887 24.7141 43.7887C23.6757 43.7887 22.8138 44.101 22.1283 44.7257C21.4427 45.3404 21.0445 46.1717 20.9336 47.2196V58.0719H18.1209V47.3557C18.1209 44.9777 16.9566 43.7887 14.6278 43.7887C12.793 43.7887 11.5379 44.5696 10.8624 46.1314V58.0719H8.06488V41.718H10.7112ZM40.5921 53.9758L44.4029 41.718H47.397L40.819 60.596C39.8008 63.3166 38.1827 64.6769 35.9648 64.6769L35.4356 64.6316L34.3922 64.4351V62.1679L35.1483 62.2284C36.0958 62.2284 36.8318 62.0369 37.3561 61.654C37.8904 61.2711 38.3288 60.5708 38.6717 59.5531L39.2917 57.8905L33.4546 41.718H36.5092L40.5921 53.9758ZM50.3458 58.0719V36.0651H57.5438C59.933 36.0651 61.7276 36.5589 62.9272 37.5463C64.1369 38.5338 64.7419 39.9949 64.7419 41.9296C64.7419 42.9574 64.4495 43.8692 63.8647 44.6653C63.2801 45.4513 62.4837 46.0608 61.4755 46.4942C62.6651 46.8267 63.6027 47.4615 64.2882 48.3986C64.9838 49.3256 65.3316 50.434 65.3316 51.7238C65.3316 53.6988 64.6915 55.2505 63.4111 56.379C62.1308 57.5076 60.3212 58.0719 57.9824 58.0719H50.3458ZM53.2492 47.7789V55.6989H58.0429C59.3937 55.6989 60.4573 55.3512 61.2335 54.6559C62.0199 53.9506 62.413 52.9833 62.413 51.754C62.413 49.1039 60.9715 47.7789 58.0882 47.7789H53.2492ZM53.2492 45.4513H57.6346C58.9048 45.4513 59.918 45.1338 60.6741 44.499C61.4402 43.8642 61.8233 43.0027 61.8233 41.9145C61.8233 40.7052 61.4704 39.8286 60.7648 39.2845C60.0591 38.7303 58.9855 38.4532 57.5438 38.4532H53.2492V45.4513ZM79.3043 58.0719C79.143 57.7494 79.0119 57.175 78.9111 56.3488C77.6106 57.699 76.0581 58.3742 74.2535 58.3742C72.6405 58.3742 71.3148 57.9207 70.2765 57.0138C69.2482 56.0969 68.734 54.9382 68.734 53.5375C68.734 51.8346 69.3792 50.5146 70.6696 49.5775C71.9701 48.6303 73.7948 48.1568 76.1438 48.1568H78.8657V46.872C78.8657 45.8946 78.5734 45.1187 77.9886 44.5444C77.4039 43.9599 76.542 43.6677 75.4028 43.6677C74.4048 43.6677 73.568 43.9196 72.8926 44.4235C72.2171 44.9273 71.8794 45.5369 71.8794 46.2523H69.0667C69.0667 45.4361 69.354 44.6501 69.9287 43.8944C70.5134 43.1286 71.2997 42.5241 72.2877 42.0807C73.2857 41.6373 74.3796 41.4157 75.5691 41.4157C77.4543 41.4157 78.9312 41.8893 79.9999 42.8364C81.0685 43.7735 81.6229 45.0684 81.6633 46.7208V54.2479C81.6633 55.7492 81.8549 56.9433 82.2379 57.8301V58.0719H79.3043ZM74.6618 55.9407C75.5389 55.9407 76.3706 55.714 77.1569 55.2606C77.9433 54.8071 78.5129 54.2177 78.8657 53.4921V50.1368H76.673C73.2454 50.1368 71.5316 51.1393 71.5316 53.1445C71.5316 54.0212 71.8239 54.7063 72.4087 55.2001C72.9934 55.6939 73.7444 55.9407 74.6618 55.9407ZM89.0882 58.0719H86.2906V34.856H89.0882V58.0719ZM96.619 58.0719H93.8214V34.856H96.619V58.0719ZM100.369 49.7438C100.369 48.1417 100.682 46.7007 101.307 45.421C101.941 44.1413 102.819 43.1538 103.938 42.4586C105.067 41.7633 106.352 41.4157 107.794 41.4157C110.022 41.4157 111.822 42.1865 113.192 43.7282C114.574 45.2698 115.264 47.3204 115.264 49.8798V50.0763C115.264 51.6683 114.956 53.0992 114.341 54.3688C113.737 55.6283 112.865 56.6108 111.725 57.3161C110.597 58.0215 109.296 58.3742 107.824 58.3742C105.606 58.3742 103.807 57.6033 102.426 56.0616C101.055 54.5199 100.369 52.4795 100.369 49.9403V49.7438ZM103.182 50.0763C103.182 51.89 103.6 53.3461 104.437 54.4443C105.284 55.5427 106.413 56.0919 107.824 56.0919C109.246 56.0919 110.375 55.5376 111.212 54.4293C112.048 53.3108 112.467 51.749 112.467 49.7438C112.467 47.9502 112.038 46.4992 111.182 45.3908C110.334 44.2723 109.206 43.7131 107.794 43.7131C106.413 43.7131 105.299 44.2623 104.452 45.3606C103.605 46.4588 103.182 48.0308 103.182 50.0763ZM122.568 37.7579V41.718H125.623V43.8793H122.568V54.0212C122.568 54.6762 122.704 55.1699 122.977 55.5024C123.249 55.8248 123.712 55.986 124.368 55.986C124.69 55.986 125.133 55.9256 125.699 55.8047V58.0719C124.962 58.2734 124.247 58.3742 123.551 58.3742C122.301 58.3742 121.359 57.9963 120.723 57.2406C120.088 56.4848 119.771 55.4117 119.771 54.0212V43.8793H116.791V41.718H119.771V37.7579H122.568Z" fill="black"/>
<path d="M54.6353 109.381L62.1231 68.3896H73.5458L61.2062 126H49.6688L40.6147 87.461L31.5606 126H20.0233L7.68362 68.3896H19.1064L26.6324 109.302L35.8011 68.3896H45.5047L54.6353 109.381ZM109.495 114.129H89.4001L85.5798 126H73.393L94.0987 68.3896H104.72L125.541 126H113.353L109.495 114.129ZM92.4949 104.515H106.401L99.4092 82.9504L92.4949 104.515Z" fill="black"/>
<path d="M133.623 27.7214C123.339 24.0066 113.477 20.5113 102.581 18.2213C89.9169 15.5604 77.6565 12.0806 66.0779 6.39724C63.4006 5.68025 60.7327 4.96636 58.0867 4.25556C52.8979 2.86485 47.6841 1.46797 42.4297 0.0648995C42.2608 0.0216332 42.0888 0 41.9199 0C41.457 0 41.0035 0.163794 40.6438 0.469749C40.1528 0.88696 39.9057 1.51741 39.9839 2.15405C40.0464 2.67942 39.9651 3.28824 39.8806 3.93724C39.6867 5.39284 39.3302 8.10317 42.1482 9.293C42.9927 9.65149 43.1928 9.96671 43.2022 10.0316C43.2241 10.2201 42.9395 10.727 42.5016 11.0391C38.5139 13.8823 39.718 17.1273 40.5156 19.2783C40.6407 19.612 40.7658 19.952 40.8784 20.2981C41.1255 21.0584 41.4351 21.8093 41.7322 22.5387C42.7393 24.9987 43.2992 26.5903 42.5673 27.9841C41.7041 29.6313 40.6 31.1611 39.4303 32.7835C38.1792 34.5204 36.8969 36.3036 35.8679 38.3031C35.9023 38.1238 35.9335 37.9446 35.9679 37.7684C36.4058 35.3795 36.8187 33.1235 38.0322 30.988C39.2019 28.9266 39.4365 26.204 38.6327 24.0561C37.9978 22.3625 36.7374 21.1016 35.0891 20.5083C26.7101 17.4951 19.285 13.0417 12.5043 8.678C12.2259 8.49875 11.8787 8.18661 11.5097 7.85284C10.5057 6.94734 9.25152 5.81933 7.57822 5.81933C6.81507 5.81933 6.08946 6.05729 5.42639 6.52395C3.08691 8.16498 2.83044 11.4872 2.83982 13.8421C2.84921 15.8695 3.32148 17.6341 3.78438 19.0928L3.90635 19.4699C4.64135 21.7784 5.33256 23.9603 4.73518 25.966C4.06274 28.222 4.2848 30.3699 4.49435 32.4436C4.71642 34.6285 4.91033 36.5168 4.06899 38.2722C3.58733 39.2766 3.5154 40.213 3.85944 41.0505C4.38489 42.3361 5.60154 42.7904 6.40535 43.0933C6.46478 43.1149 6.53671 43.1427 6.60865 43.1706L6.37407 43.2478C4.50686 43.8597 3.27457 44.2646 2.89299 45.6491C2.51142 47.0336 3.36214 47.9948 4.65074 49.4473L4.73518 49.5431C5.30129 50.1828 5.40763 51.4313 4.98852 52.5748C4.72893 53.2856 4.19723 54.086 3.48099 54.2004C3.36527 54.2189 3.24955 54.222 3.14633 54.2251C2.55833 54.256 0.766188 54.3425 0.175062 56.3699C-0.584959 58.9813 1.31353 60.0444 2.34878 60.5327C2.42385 60.5667 2.49578 60.6007 2.55833 60.6285C3.44659 61.0365 4.33797 61.4908 5.22622 61.9976C6.14576 62.1243 7.19352 62.5199 8.36014 63.1843C10.4025 64.3463 11.7818 66.7507 14.5998 66.4726C15.3004 67.5573 16.3075 67.7428 17.4898 67.4213C17.1457 69.3776 17.912 71.2659 17.6899 73.3148C17.4303 75.7316 16.4326 78.5593 18.4718 80.8525C18.5 81.4891 18.8347 81.826 19.4727 81.8661C20.3891 83.2908 21.6464 84.048 23.4261 83.7791C23.4104 83.7637 23.3948 83.7513 23.3791 83.7359C30.7573 85.3985 38.4576 84.7248 45.7794 86.78C47.018 88.0347 48.6162 87.0396 50.0424 87.1137C50.1612 87.1199 50.2801 87.1323 50.3958 87.157C50.6273 87.2033 50.8556 87.2837 51.0745 87.4197C51.184 87.4877 51.2903 87.568 51.3935 87.6638C52.4476 87.6576 53.5016 87.6515 54.5556 87.6453C54.934 88.5848 55.6096 89.2307 56.5667 89.5954L56.5104 89.549C56.5385 89.5737 56.5667 89.5954 56.5667 89.5954C56.5698 89.5768 56.5698 89.5645 56.5729 89.549C59.6349 90.7914 62.6938 92.0121 65.2334 88.6095C68.4987 88.9093 71.7671 89.5459 75.0324 88.625C76.0082 90.1455 77.5845 89.3821 78.9107 89.5645C79.5925 90.7883 81.0187 90.8964 81.7881 90.402C85.3098 88.1336 88.6627 89.9013 91.9749 90.6461C100.97 92.6735 109.784 95.4765 118.898 97.0248C118.92 97.065 118.942 97.1082 118.963 97.1515C119.264 97.0372 119.561 96.8796 119.849 96.6787C119.858 95.5816 119.867 94.4875 119.877 93.3904C121.294 92.1234 121.294 90.8563 119.877 89.5892C119.877 88.6157 119.877 87.6453 119.88 86.6718C121.684 86.1866 121.444 84.5579 121.734 83.2568C124.997 68.7132 128.237 54.1633 131.487 39.6165C130.942 37.6634 131.211 35.8091 131.684 33.9826C131.968 32.8855 132.325 31.7977 132.622 30.7037C133.989 30.0763 133.613 28.9174 133.513 27.8419C133.541 27.7925 133.582 27.7708 133.623 27.7214Z" fill="black" fill-opacity="0.1"/>
</svg>
