<svg width="315" height="297" viewBox="0 0 315 297" fill="none" xmlns="http://www.w3.org/2000/svg">
<g clip-path="url(#clip0)">
<path d="M25.248 98.3355L25.4263 102.611C28.2541 99.2854 32.068 97.6228 36.8682 97.6228C42.2625 97.6228 45.9338 99.6892 47.8822 103.822C49.1656 101.969 50.829 100.473 52.8726 99.3331C54.9399 98.193 57.3757 97.6228 60.1797 97.6228C68.6394 97.6228 72.9405 102.1 73.0831 111.054V136.884H66.4887V111.446C66.4887 108.691 65.8591 106.637 64.5997 105.283C63.3402 103.905 61.2252 103.216 58.2549 103.216C55.8072 103.216 53.7756 103.953 52.1596 105.425C50.5437 106.874 49.605 108.834 49.3437 111.304V136.884H42.7138V111.624C42.7138 106.019 39.9692 103.216 34.4801 103.216C30.1551 103.216 27.1966 105.057 25.6045 108.739V136.884H19.0103V98.3355H25.248ZM95.6816 127.229L104.664 98.3355H111.722L96.2164 142.834C93.8163 149.247 90.0022 152.453 84.7744 152.453L83.5269 152.346L81.0674 151.883V146.539L82.8497 146.681C85.0832 146.681 86.818 146.23 88.0537 145.328C89.3132 144.425 90.3468 142.774 91.1548 140.375L92.6162 136.456L78.8574 98.3355H86.0576L95.6816 127.229ZM118.672 136.884V85.0109H135.639C141.271 85.0109 145.501 86.1747 148.329 88.5023C151.18 90.8299 152.606 94.274 152.606 98.8343C152.606 101.257 151.917 103.406 150.539 105.283C149.16 107.135 147.283 108.572 144.907 109.594C147.711 110.377 149.921 111.874 151.537 114.083C153.176 116.268 153.996 118.88 153.996 121.921C153.996 126.576 152.487 130.234 149.469 132.894C146.451 135.554 142.186 136.884 136.673 136.884H118.672ZM125.516 112.622V131.29H136.816C140 131.29 142.507 130.471 144.336 128.832C146.19 127.17 147.117 124.889 147.117 121.992C147.117 115.745 143.719 112.622 136.922 112.622H125.516ZM125.516 107.135H135.853C138.847 107.135 141.235 106.387 143.018 104.891C144.824 103.395 145.727 101.364 145.727 98.7986C145.727 95.9483 144.895 93.882 143.231 92.5995C141.568 91.2932 139.037 90.64 135.639 90.64H125.516V107.135ZM186.932 136.884C186.551 136.124 186.243 134.77 186.005 132.822C182.94 136.005 179.28 137.597 175.026 137.597C171.224 137.597 168.099 136.528 165.652 134.39C163.228 132.229 162.016 129.497 162.016 126.196C162.016 122.182 163.537 119.07 166.579 116.862C169.644 114.629 173.945 113.513 179.482 113.513H185.898V110.484C185.898 108.18 185.209 106.351 183.831 104.998C182.452 103.62 180.421 102.931 177.735 102.931C175.383 102.931 173.41 103.525 171.818 104.713C170.226 105.9 169.43 107.337 169.43 109.024H162.8C162.8 107.1 163.478 105.247 164.832 103.466C166.21 101.661 168.064 100.236 170.393 99.1904C172.745 98.1454 175.323 97.6228 178.127 97.6228C182.571 97.6228 186.052 98.7392 188.571 100.972C191.09 103.181 192.397 106.233 192.492 110.128V127.87C192.492 131.409 192.944 134.224 193.847 136.314V136.884H186.932ZM175.989 131.861C178.056 131.861 180.017 131.326 181.87 130.257C183.724 129.188 185.066 127.799 185.898 126.089V118.18H180.729C172.65 118.18 168.61 120.543 168.61 125.269C168.61 127.336 169.299 128.951 170.678 130.115C172.056 131.279 173.826 131.861 175.989 131.861ZM209.994 136.884H203.399V82.1607H209.994V136.884ZM227.745 136.884H221.151V82.1607H227.745V136.884ZM236.584 117.253C236.584 113.477 237.322 110.08 238.794 107.064C240.291 104.048 242.359 101.72 244.997 100.081C247.658 98.4423 250.687 97.6228 254.086 97.6228C259.338 97.6228 263.58 99.4399 266.81 103.074C270.067 106.708 271.695 111.541 271.695 117.574V118.037C271.695 121.79 270.969 125.163 269.519 128.155C268.094 131.124 266.04 133.44 263.353 135.103C260.692 136.765 257.626 137.597 254.157 137.597C248.929 137.597 244.687 135.78 241.432 132.145C238.2 128.511 236.584 123.702 236.584 117.717V117.253ZM243.215 118.037C243.215 122.312 244.2 125.745 246.173 128.333C248.169 130.922 250.831 132.217 254.157 132.217C257.509 132.217 260.169 130.91 262.142 128.298C264.113 125.661 265.101 121.98 265.101 117.253C265.101 113.026 264.091 109.605 262.071 106.993C260.074 104.356 257.413 103.038 254.086 103.038C250.831 103.038 248.205 104.333 246.208 106.922C244.213 109.51 243.215 113.216 243.215 118.037ZM288.911 89.0011V98.3355H296.111V103.43H288.911V127.336C288.911 128.88 289.231 130.044 289.874 130.827C290.515 131.587 291.608 131.967 293.153 131.967C293.913 131.967 294.958 131.825 296.29 131.54V136.884C294.554 137.359 292.867 137.597 291.229 137.597C288.28 137.597 286.06 136.706 284.561 134.924C283.065 133.143 282.316 130.613 282.316 127.336V103.43H275.294V98.3355H282.316V89.0011H288.911Z" fill="white"/>
<path d="M128.783 257.828L146.432 161.205H173.357L144.271 297H117.076L95.7341 206.159L74.3923 297H47.1971L18.1108 161.205H45.0359L62.7758 257.642L84.3877 161.205H107.261L128.783 257.828ZM258.094 269.02H210.728L201.723 297H172.997L221.804 161.205H246.839L295.916 297H267.189L258.094 269.02ZM218.023 246.357H250.801L234.321 195.527L218.023 246.357Z" fill="white"/>
<path d="M314.968 65.3432C290.728 56.5871 267.483 48.3482 241.797 42.9502C211.947 36.6782 183.047 28.4757 155.755 15.0792C149.444 13.3892 143.156 11.7064 136.919 10.031C124.688 6.75286 112.398 3.4602 100.013 0.152977C99.6147 0.0509925 99.2092 0 98.8111 0C97.72 0 96.651 0.386086 95.8032 1.10727C94.6458 2.09069 94.0633 3.57676 94.2477 5.0774C94.3951 6.31578 94.2034 7.75086 94.0044 9.28063C93.5473 12.7117 92.7068 19.1003 99.3493 21.9049C101.34 22.7499 101.812 23.493 101.834 23.6459C101.885 24.0903 101.215 25.285 100.182 26.0207C90.7827 32.7226 93.621 40.3715 95.501 45.4416C95.7958 46.2283 96.0907 47.0296 96.3561 47.8455C96.9386 49.6375 97.6684 51.4077 98.3688 53.1269C100.743 58.9255 102.062 62.6771 100.337 65.9624C98.3024 69.8451 95.7 73.451 92.9428 77.2755C89.9938 81.3695 86.9712 85.5727 84.5457 90.2859C84.6268 89.8633 84.7005 89.4408 84.7816 89.0256C85.8137 83.3946 86.7869 78.0768 89.6473 73.0431C92.4046 68.1842 92.9575 61.7665 91.0628 56.7037C89.5662 52.7117 86.5952 49.7395 82.71 48.3409C62.9595 41.2384 45.4576 30.7412 29.4744 20.4553C28.8182 20.0328 27.9999 19.297 27.13 18.5103C24.7635 16.3759 21.8071 13.717 17.8629 13.717C16.0641 13.717 14.3537 14.2779 12.7908 15.3779C7.27628 19.246 6.67175 27.077 6.69387 32.6279C6.71599 37.4066 7.82921 41.5662 8.92031 45.0045L9.20783 45.8932C10.9403 51.3349 12.5696 56.4778 11.1615 61.2056C9.57645 66.5233 10.0999 71.5862 10.5938 76.4742C11.1173 81.6244 11.5744 86.0753 9.5912 90.213C8.45586 92.5805 8.28629 94.7878 9.09725 96.7619C10.3358 99.7923 13.2036 100.863 15.0983 101.577C15.2384 101.628 15.408 101.694 15.5775 101.759L15.0246 101.941C10.6233 103.384 7.71862 104.338 6.8192 107.601C5.91978 110.865 7.92505 113.13 10.9624 116.554L11.1615 116.78C12.4959 118.288 12.7466 121.231 11.7587 123.926C11.1468 125.602 9.89346 127.489 8.2052 127.758C7.93242 127.802 7.65964 127.809 7.41636 127.816C6.03036 127.889 1.80602 128.093 0.412645 132.872C-1.37883 139.027 3.09617 141.533 5.53641 142.684C5.71335 142.764 5.88291 142.845 6.03036 142.91C8.1241 143.872 10.2252 144.943 12.319 146.137C14.4864 146.436 16.9562 147.368 19.706 148.934C24.5202 151.674 27.7714 157.341 34.4138 156.685C36.0652 159.242 38.4391 159.679 41.2259 158.922C40.4149 163.533 42.2211 167.984 41.6977 172.814C41.0858 178.51 38.734 185.176 43.5408 190.581C43.6071 192.081 44.396 192.875 45.8999 192.97C48.06 196.328 51.0237 198.113 55.2185 197.479C55.1817 197.443 55.1448 197.414 55.108 197.377C72.4993 201.297 90.65 199.708 107.909 204.553C110.828 207.51 114.595 205.165 117.957 205.339C118.237 205.354 118.517 205.383 118.79 205.441C119.336 205.551 119.874 205.74 120.39 206.061C120.648 206.221 120.899 206.41 121.142 206.636C123.626 206.622 126.111 206.607 128.595 206.592C129.487 208.807 131.08 210.329 133.336 211.189L133.203 211.08C133.269 211.138 133.336 211.189 133.336 211.189C133.343 211.145 133.343 211.116 133.35 211.08C140.568 214.008 147.778 216.886 153.764 208.865C161.461 209.572 169.165 211.072 176.862 208.902C179.162 212.486 182.878 210.686 186.004 211.116C187.611 214.001 190.973 214.256 192.786 213.09C201.087 207.743 208.991 211.91 216.798 213.666C238.001 218.445 258.776 225.052 280.259 228.701C280.311 228.796 280.362 228.898 280.414 229C281.121 228.73 281.822 228.359 282.5 227.885C282.522 225.299 282.544 222.721 282.566 220.135C285.906 217.148 285.906 214.161 282.566 211.174C282.566 208.88 282.566 206.592 282.574 204.298C286.828 203.154 286.26 199.315 286.946 196.248C294.635 161.967 302.273 127.671 309.933 93.3818C308.65 88.7779 309.284 84.4071 310.397 80.1019C311.068 77.5159 311.908 74.9517 312.609 72.3729C315.83 70.8941 314.946 68.1624 314.71 65.6273C314.776 65.5108 314.872 65.4598 314.968 65.3432Z" fill="white" fill-opacity="0.2"/>
</g>
<defs>
<clipPath id="clip0">
<rect width="315" height="297" fill="white"/>
</clipPath>
</defs>
</svg>
