<svg width="69" height="24" viewBox="0 0 69 24" fill="none" xmlns="http://www.w3.org/2000/svg">
<path d="M11.3203 19H9.62402V13.085H3.17285V19H1.48535V6.20312H3.17285V11.7051H9.62402V6.20312H11.3203V19ZM18.0088 19.1758C16.7197 19.1758 15.6709 18.7539 14.8623 17.9102C14.0537 17.0605 13.6494 15.9268 13.6494 14.5088V14.21C13.6494 13.2666 13.8281 12.4258 14.1855 11.6875C14.5488 10.9434 15.0527 10.3633 15.6973 9.94727C16.3477 9.52539 17.0508 9.31445 17.8066 9.31445C19.043 9.31445 20.0039 9.72168 20.6895 10.5361C21.375 11.3506 21.7178 12.5166 21.7178 14.0342V14.7109H15.2754C15.2988 15.6484 15.5713 16.4072 16.0928 16.9873C16.6201 17.5615 17.2881 17.8486 18.0967 17.8486C18.6709 17.8486 19.1572 17.7314 19.5557 17.4971C19.9541 17.2627 20.3027 16.9521 20.6016 16.5654L21.5947 17.3389C20.7979 18.5635 19.6025 19.1758 18.0088 19.1758ZM17.8066 10.6504C17.1504 10.6504 16.5996 10.8906 16.1543 11.3711C15.709 11.8457 15.4336 12.5137 15.3281 13.375H20.0918V13.252C20.0449 12.4258 19.8223 11.7871 19.4238 11.3359C19.0254 10.8789 18.4863 10.6504 17.8066 10.6504ZM25.374 19H23.748V5.5H25.374V19ZM36.0176 14.3506C36.0176 15.7979 35.6865 16.9639 35.0244 17.8486C34.3623 18.7334 33.4658 19.1758 32.335 19.1758C31.1807 19.1758 30.2725 18.8096 29.6104 18.0771V22.6562H27.9844V9.49023H29.4697L29.5488 10.5449C30.2109 9.72461 31.1309 9.31445 32.3086 9.31445C33.4512 9.31445 34.3535 9.74512 35.0156 10.6064C35.6836 11.4678 36.0176 12.666 36.0176 14.2012V14.3506ZM34.3916 14.166C34.3916 13.0938 34.1631 12.2471 33.7061 11.626C33.249 11.0049 32.6221 10.6943 31.8252 10.6943C30.8408 10.6943 30.1025 11.1309 29.6104 12.0039V16.5479C30.0967 17.415 30.8408 17.8486 31.8428 17.8486C32.6221 17.8486 33.2402 17.541 33.6973 16.9258C34.1602 16.3047 34.3916 15.3848 34.3916 14.166Z" fill="#FFD520"/>
<path d="M57 22C62.5228 22 67 17.5228 67 12C67 6.47715 62.5228 2 57 2C51.4772 2 47 6.47715 47 12C47 17.5228 51.4772 22 57 22Z" stroke="#FFD520" stroke-width="2" stroke-linecap="round" stroke-linejoin="round"/>
<path d="M54.0898 8.99996C54.3249 8.33163 54.789 7.76807 55.3998 7.40909C56.0106 7.05012 56.7287 6.9189 57.427 7.03867C58.1253 7.15844 58.7587 7.52148 59.2149 8.06349C59.6712 8.60549 59.9209 9.29148 59.9198 9.99996C59.9198 12 56.9198 13 56.9198 13" stroke="#FFD520" stroke-width="2" stroke-linecap="round" stroke-linejoin="round"/>
<path d="M57 17H57.01" stroke="#FFD520" stroke-width="2" stroke-linecap="round" stroke-linejoin="round"/>
</svg>
