<svg width="284" height="284" viewBox="0 0 284 284" fill="none" xmlns="http://www.w3.org/2000/svg">
<rect width="284" height="284" fill="white"/>
<g clip-path="url(#clip0)">
<path d="M239.244 60.6678C240.247 60.8672 241.297 60.6725 242.202 60.1214C243.032 59.6159 243.662 58.845 243.971 57.9564C244.07 57.6769 243.93 57.3739 243.635 57.2593C243.351 57.1588 243.035 57.308 242.938 57.5953C242.709 58.2468 242.247 58.8136 241.632 59.1888C240.963 59.597 240.192 59.7415 239.459 59.5955C238.741 59.4526 238.148 59.0476 237.787 58.4572C237.426 57.8653 237.338 57.1526 237.539 56.4508C237.744 55.7317 238.226 55.1115 238.895 54.7033C239.898 54.091 241.128 54.0863 242.026 54.6892C242.275 54.8572 242.616 54.7913 242.786 54.5416C242.867 54.4192 242.897 54.2747 242.869 54.1303C242.841 53.9874 242.759 53.8634 242.636 53.7818C242.415 53.6326 242.175 53.507 241.924 53.4096C240.774 52.9591 239.429 53.0941 238.322 53.7692C237.667 54.1695 237.143 54.7237 236.798 55.3737C236.667 55.6202 236.562 55.8793 236.485 56.1493C236.199 57.1494 236.33 58.1715 236.851 59.0271C237.372 59.8797 238.223 60.4637 239.244 60.6678Z" fill="#ECECF9"/>
<path d="M28.5119 22.4631C27.9436 21.6121 27.0628 21.0077 26.0345 20.758C25.0893 20.5288 24.1002 20.6277 23.2524 21.0375C22.9855 21.1647 22.8693 21.4787 22.9965 21.7676C23.1268 22.0392 23.455 22.1569 23.7281 22.0235C24.3499 21.7252 25.0783 21.6514 25.7786 21.8209C26.54 22.0046 27.1869 22.4489 27.6029 23.0707C28.0095 23.6782 28.143 24.3847 27.9797 25.0583C27.8164 25.7318 27.3753 26.2986 26.7363 26.6534C26.0831 27.0176 25.3029 27.115 24.5414 26.9297C23.3984 26.6534 22.5255 25.7883 22.3167 24.7254C22.2586 24.4303 21.9713 24.2356 21.6746 24.2937C21.5301 24.3235 21.4077 24.4036 21.326 24.526C21.2444 24.6469 21.2146 24.7929 21.2428 24.9358C21.2946 25.198 21.3747 25.4571 21.483 25.702C21.9776 26.8324 23.0248 27.6896 24.2839 27.9942C25.0297 28.1747 25.7927 28.1527 26.4961 27.9377C26.763 27.856 27.0204 27.7461 27.2654 27.6095C28.1744 27.1056 28.8055 26.2892 29.041 25.3158C29.2781 24.3424 29.0897 23.3297 28.5119 22.4631Z" fill="#ECECF9"/>
<path d="M34.0793 120.563C33.2283 121.131 32.6239 122.012 32.3743 123.041C32.145 123.986 32.2439 124.975 32.6537 125.823C32.7809 126.089 33.0949 126.206 33.3838 126.078C33.6554 125.948 33.7731 125.62 33.6397 125.347C33.3414 124.725 33.2676 123.997 33.4371 123.296C33.6208 122.535 34.0651 121.888 34.6869 121.472C35.2945 121.065 36.001 120.932 36.6745 121.095C37.348 121.259 37.9148 121.7 38.2696 122.339C38.6338 122.992 38.7312 123.772 38.5459 124.534C38.2696 125.677 37.4045 126.549 36.3416 126.758C36.0465 126.816 35.8518 127.104 35.9099 127.4C35.9397 127.545 36.0198 127.667 36.1423 127.749C36.2631 127.831 36.4092 127.86 36.552 127.832C36.8142 127.78 37.0733 127.7 37.3182 127.592C38.4486 127.097 39.3058 126.05 39.6104 124.791C39.7909 124.045 39.769 123.282 39.5539 122.579C39.4722 122.312 39.3623 122.055 39.2257 121.81C38.7218 120.901 37.9054 120.269 36.932 120.034C35.9586 119.797 34.9443 119.985 34.0793 120.563Z" fill="#ECECF9"/>
<path d="M53.1564 34.0069C52.3055 34.5752 51.701 35.456 51.4514 36.4843C51.2222 37.4295 51.3211 38.4186 51.7309 39.2664C51.858 39.5333 52.172 39.6495 52.4609 39.5223C52.7325 39.392 52.8503 39.0639 52.7168 38.7907C52.4185 38.169 52.3447 37.4405 52.5143 36.7403C52.698 35.9788 53.1423 35.332 53.764 34.9159C54.3716 34.5093 55.0781 34.3758 55.7516 34.5391C56.4252 34.7024 56.9919 35.1436 57.3467 35.7826C57.711 36.4357 57.8083 37.216 57.6231 37.9774C57.3467 39.1204 56.4817 39.9933 55.4188 40.2021C55.1236 40.2602 54.9289 40.5475 54.987 40.8443C55.0169 40.9887 55.0969 41.1111 55.2194 41.1928C55.3403 41.2744 55.4863 41.3043 55.6292 41.276C55.8914 41.2242 56.1504 41.1441 56.3953 41.0358C57.5257 40.5412 58.3829 39.4941 58.6875 38.2349C58.8681 37.4892 58.8461 36.7261 58.631 36.0228C58.5494 35.7559 58.4395 35.4984 58.3029 35.2535C57.7973 34.3444 56.9825 33.7133 56.0091 33.4778C55.0357 33.2407 54.0215 33.4291 53.1564 34.0069Z" fill="#CBCBEE"/>
<path d="M158.882 3.81132C159.885 4.01071 160.935 3.81603 161.84 3.26496C162.67 2.75942 163.3 1.98855 163.609 1.09993C163.708 0.820471 163.568 0.51746 163.273 0.40285C162.989 0.30237 162.673 0.451518 162.576 0.738828C162.347 1.39038 161.885 1.95715 161.27 2.33238C160.601 2.74058 159.83 2.88502 159.097 2.73901C158.379 2.59614 157.786 2.19108 157.425 1.60076C157.064 1.00887 156.976 0.296091 157.177 -0.405699C157.382 -1.12476 157.864 -1.74491 158.533 -2.15311C159.536 -2.76541 160.766 -2.77012 161.664 -2.16724C161.913 -1.99925 162.254 -2.06519 162.424 -2.31482C162.505 -2.43728 162.535 -2.58173 162.507 -2.72617C162.479 -2.86904 162.397 -2.99306 162.275 -3.0747C162.053 -3.22385 161.813 -3.34945 161.562 -3.44679C160.413 -3.89739 159.067 -3.76236 157.96 -3.08726C157.306 -2.68691 156.781 -2.1327 156.436 -1.48272C156.305 -1.23623 156.2 -0.977182 156.123 -0.707141C155.838 0.292949 155.968 1.31502 156.489 2.17067C157.012 3.02318 157.861 3.60722 158.882 3.81132Z" fill="#ECECF9"/>
<path d="M214.051 142.791C213.852 143.794 214.047 144.845 214.598 145.749C215.103 146.579 215.874 147.209 216.763 147.518C217.042 147.617 217.345 147.477 217.46 147.182C217.56 146.898 217.411 146.583 217.124 146.485C216.472 146.256 215.906 145.794 215.53 145.179C215.122 144.51 214.978 143.739 215.124 143.006C215.267 142.289 215.672 141.695 216.262 141.334C216.854 140.973 217.567 140.885 218.268 141.086C218.987 141.292 219.608 141.774 220.016 142.442C220.628 143.446 220.633 144.675 220.03 145.573C219.862 145.823 219.928 146.163 220.178 146.333C220.3 146.415 220.444 146.444 220.587 146.416C220.73 146.388 220.854 146.306 220.936 146.184C221.085 145.962 221.211 145.722 221.308 145.471C221.757 144.322 221.623 142.976 220.948 141.869C220.548 141.215 219.994 140.69 219.344 140.345C219.097 140.215 218.838 140.109 218.568 140.032C217.568 139.747 216.546 139.877 215.69 140.398C214.84 140.921 214.255 141.77 214.051 142.791Z" fill="#CBCBEE"/>
<path d="M95.6257 125.989C88.4806 142.256 89.9988 153.406 86.9655 162.929C82.491 177.023 69.8306 175.183 69.8306 175.183C69.8306 175.183 71.713 162.821 72.1934 146.576C72.3787 140.296 76.1812 134.687 81.9164 132.121L95.6257 125.989Z" fill="#79373B"/>
<path d="M81.3638 146.797C85.6091 136.914 85.5228 124.987 93.4387 109.004C94.0981 107.643 94.825 106.263 95.6241 104.841L90.8074 106.459L78.9884 110.416C78.0652 110.727 77.1766 111.108 76.3257 111.545V154.368C78.205 152.544 79.9524 150.094 81.3638 146.797Z" fill="#79373B"/>
<path d="M76.3301 111.542V154.366C69.1631 161.326 60.0649 159.087 60.0649 159.087C60.0649 159.087 60.3209 157.737 60.7275 155.572C61.4717 151.639 62.7167 145.022 63.8235 138.999C64.8927 133.14 65.8378 127.843 66.0561 126.116C66.8552 119.809 70.7692 114.4 76.3301 111.542Z" fill="#79373B"/>
<path d="M86.8949 83.8624C92.795 81.3347 99.0828 78.405 105.298 75.097C106.049 74.6998 106.798 74.2916 107.547 73.8834C105.05 72.3103 102.623 70.7183 100.289 69.1358C95.8376 66.1292 91.7242 63.1462 88.0771 60.3971C87.5292 59.9889 87.0048 59.5807 86.4804 59.1851C83.7125 57.0766 79.5316 53.654 76.3257 50.9976V74.4926C78.3541 76.4472 80.5914 78.3469 82.9731 80.4036C84.2448 81.4979 85.5573 82.6456 86.8949 83.8624Z" fill="#79373B"/>
<path d="M71.7301 47.1606C71.7301 47.1606 62.2913 57.8115 72.6627 70.5583C73.7806 71.9337 75.0114 73.2258 76.3271 74.4943V50.9977C73.7036 48.8233 71.7301 47.1606 71.7301 47.1606Z" fill="#79373B"/>
<path d="M76.0447 88.2568C69.4774 90.7766 55.8765 95.1773 55.8765 95.1773C55.8765 95.1773 59.8847 108.821 76.1875 106.814C76.2346 106.808 76.2817 106.797 76.3273 106.792V88.1484C76.2346 88.183 76.1373 88.2222 76.0447 88.2568Z" fill="#79373B"/>
<path d="M97.6211 95.3531C93.9787 90.6353 90.3441 86.9976 86.8964 83.8623C86.8132 83.8984 86.7284 83.9361 86.6452 83.9722C83.0216 85.5218 79.5566 86.9112 76.3271 88.1484V106.792C83.3058 105.899 90.1008 102.891 99.1832 100.73C99.83 100.577 100.502 100.432 101.172 100.288C99.9965 98.5182 98.8143 96.8776 97.632 95.3531H97.6211Z" fill="#79373B"/>
<path d="M191.574 227.846C189.289 245.727 152.814 255.762 137.298 244.161C133.897 241.626 131.597 236.497 129.497 230.703V230.695C129.454 230.589 129.418 230.474 129.376 230.367C128.734 228.625 128.126 226.818 127.49 225.009C127.44 224.866 127.39 224.715 127.34 224.572C127.011 223.623 126.682 222.673 126.339 221.723C126.317 221.666 126.297 221.608 126.275 221.552C125.597 219.68 124.889 217.837 124.124 216.08C124.102 216.038 124.082 215.988 124.068 215.945C121.753 210.673 118.924 206.238 114.789 204.252C102.681 198.459 95.9521 188.015 92.9157 182.035C91.5294 179.298 90.9155 177.505 90.9155 177.505C90.9155 177.505 91.9156 177.391 93.7086 177.22C104.267 176.184 142.292 172.819 163.844 175.783C165.773 176.041 167.572 176.362 169.194 176.727C175.323 178.119 179.139 180.313 179.016 183.621C178.817 188.993 180.495 193.686 182.709 198.258C182.709 198.272 182.717 198.28 182.723 198.294C183.437 199.787 184.208 201.266 184.995 202.759C185.002 202.773 185.009 202.795 185.023 202.809C185.587 203.896 186.166 204.995 186.729 206.117C186.794 206.252 186.864 206.381 186.929 206.517C187.629 207.904 188.301 209.318 188.907 210.767C188.979 210.932 189.05 211.103 189.121 211.275C191.124 216.151 192.381 221.487 191.574 227.846Z" fill="#79373B"/>
<path d="M162.457 31.9993C162.457 27.6111 158.903 24.0566 154.515 24.0566H92.3254C87.9373 24.0566 84.3828 27.6111 84.3828 31.9993V37.2211H162.459V31.9993H162.457Z" fill="#FAFAFF"/>
<path d="M84.3828 37.2207V89.3447V165.116C84.3828 169.504 87.9373 173.059 92.3254 173.059H154.516C156.972 173.059 159.17 171.946 160.622 170.193C161.77 168.817 162.459 167.05 162.459 165.116V89.3463V37.2207H84.3828Z" fill="#FAFAFF"/>
<path d="M95.7222 168.429C97.5553 167.657 98.4156 165.545 97.6436 163.712C96.8716 161.878 94.7598 161.018 92.9266 161.79C91.0935 162.562 90.2332 164.674 91.0052 166.507C91.7772 168.34 93.889 169.201 95.7222 168.429Z" fill="#E7E7F7"/>
<path d="M109.967 168.429C111.8 167.657 112.66 165.545 111.888 163.712C111.116 161.879 109.004 161.019 107.171 161.791C105.338 162.563 104.478 164.675 105.25 166.508C106.022 168.341 108.134 169.201 109.967 168.429Z" fill="#E7E7F7"/>
<path d="M126.351 165.801C126.727 163.847 125.448 161.96 123.494 161.584C121.541 161.208 119.653 162.488 119.278 164.441C118.902 166.394 120.181 168.282 122.134 168.658C124.088 169.033 125.976 167.754 126.351 165.801Z" fill="#67678A"/>
<path d="M138.448 168.444C140.286 167.682 141.158 165.576 140.397 163.738C139.636 161.9 137.529 161.027 135.691 161.789C133.854 162.55 132.981 164.657 133.742 166.494C134.503 168.332 136.61 169.205 138.448 168.444Z" fill="#E7E7F7"/>
<path d="M152.694 168.443C154.532 167.682 155.405 165.575 154.644 163.737C153.882 161.9 151.776 161.027 149.938 161.788C148.1 162.549 147.227 164.656 147.989 166.494C148.75 168.332 150.857 169.204 152.694 168.443Z" fill="#E7E7F7"/>
<path d="M162.459 155.956H84.4678V156.67H162.459V155.956Z" fill="#E7E7F7"/>
<path d="M163.844 175.783C162.448 176.985 160.635 177.715 158.66 177.715H96.464C95.4875 177.715 94.5643 177.544 93.7055 177.222C91.9126 177.394 90.9141 177.502 90.9141 177.502C90.9141 177.502 91.5264 179.306 92.9111 182.031C93.8123 182.257 94.7464 182.375 95.723 182.375H159.399C163.585 182.375 167.235 180.11 169.199 176.729C167.569 176.364 165.776 176.04 163.844 175.783Z" fill="#79373B"/>
<path d="M155.26 19.3984H91.5796C85.3185 19.3984 80.2427 24.4743 80.2427 30.7354V166.382C80.2427 172.643 85.3185 177.719 91.5796 177.719H155.26C161.522 177.719 166.597 172.643 166.597 166.382V30.7354C166.597 24.4743 161.522 19.3984 155.26 19.3984ZM162.457 55.7722V103.764V165.12C162.457 167.049 161.768 168.817 160.624 170.194C159.167 171.946 156.972 173.062 154.515 173.062H112.269H92.3238C87.9372 173.062 84.3812 169.506 84.3812 165.12V99.8531V53.8646V31.9977C84.3812 27.6111 87.9372 24.0566 92.3223 24.0566H154.516C158.903 24.0566 162.457 27.6127 162.457 31.9977V55.7722Z" fill="#42144A"/>
<path d="M103.867 32.1702H96.3495C95.7544 32.1702 95.2725 31.6882 95.2725 31.0931V30.2548C95.2725 29.6597 95.7544 29.1777 96.3495 29.1777H103.867C104.462 29.1777 104.944 29.6597 104.944 30.2548V31.0931C104.945 31.6882 104.462 32.1702 103.867 32.1702Z" fill="#8DBCF2"/>
<path d="M92.4039 32.1702H90.286C89.691 32.1702 89.209 31.6882 89.209 31.0931V30.2548C89.209 29.6597 89.691 29.1777 90.286 29.1777H92.4039C92.999 29.1777 93.481 29.6597 93.481 30.2548V31.0931C93.481 31.6882 92.999 32.1702 92.4039 32.1702Z" fill="#8DBCF2"/>
<path d="M157.086 31.7024C157.696 31.0917 157.696 30.1016 157.086 29.491C156.475 28.8803 155.485 28.8803 154.874 29.491C154.264 30.1016 154.264 31.0917 154.874 31.7024C155.485 32.3131 156.475 32.3131 157.086 31.7024Z" fill="#8DBCF2"/>
<path d="M145.99 31.7019C146.601 31.0912 146.601 30.1012 145.99 29.4905C145.379 28.8798 144.389 28.8798 143.779 29.4905C143.168 30.1012 143.168 31.0912 143.779 31.7019C144.389 32.3125 145.379 32.3126 145.99 31.7019Z" fill="#8DBCF2"/>
<path d="M151.961 30.9669C152.159 30.1264 151.639 29.2842 150.798 29.0857C149.958 28.8873 149.115 29.4078 148.917 30.2482C148.718 31.0887 149.239 31.9309 150.079 32.1294C150.92 32.3278 151.762 31.8074 151.961 30.9669Z" fill="#8DBCF2"/>
<path d="M152.587 137.717H112.768V139.993H152.587V137.717Z" fill="#8DBCF2"/>
<path d="M152.587 133.167H129.833V135.442H152.587V133.167Z" fill="#8DBCF2"/>
<path d="M152.587 142.268H112.768V144.543H152.587V142.268Z" fill="#8DBCF2"/>
<path d="M157.449 85.6978C155.692 95.7473 160.299 106.384 156.991 121.996C156.521 124.199 155.886 126.35 155.104 128.444C152.87 134.431 149.427 139.933 145.13 144.723C141.514 148.791 138.071 153.365 135.143 158.12C132.058 163.136 129.546 168.231 128.01 173.059H154.517C154.821 173.059 155.119 173.042 155.415 173.009C157.504 172.768 159.344 171.723 160.622 170.189C161.77 168.804 162.458 167.033 162.458 165.102V140.197V74.4927C160.211 77.0565 158.327 80.6565 157.449 85.6978Z" fill="#DADAF3"/>
<path d="M188.24 130.259C183.775 116.62 175.677 65.2578 175.677 65.2578C175.677 65.2578 160.192 66.4337 158.642 84.3192C158.105 90.4485 159.897 96.5903 160.963 103.979C161.66 108.81 162.049 114.173 161.275 120.415C160.206 129.014 156.641 137.087 151.431 144.011C148.18 148.356 145.147 153.19 142.646 158.169C134.16 175.029 133.091 192.108 142.377 197.461C151.033 202.471 164.816 195.047 174.291 180.752L179.024 183.615C181.549 168.482 191.567 140.472 188.24 130.259Z" fill="#79373B"/>
<path d="M179.504 88.3623C176.039 87.3308 172.18 84.0825 171.455 80.2674L170.266 73.9953C170.061 72.9324 170.711 71.9009 171.749 71.612L176.521 70.4644L179.504 88.3623Z" fill="#B25156"/>
<path d="M67.1364 148.096L66.3671 153.949C66.2227 155.018 65.2854 155.8 64.2099 155.744L60.7261 155.574C61.4703 151.641 62.7153 145.024 63.8221 139.001C66.2541 141.229 67.5996 144.568 67.1364 148.096Z" fill="#B25156"/>
<path d="M231.519 263.888H184.029C182.522 263.031 180.878 262.381 179.135 261.959L167.891 259.266C158.784 257.087 152.668 248.523 153.576 239.2C154.369 231.028 149.761 223.291 142.197 220.098L132.439 215.977L190.629 198.261L231.519 263.888Z" fill="#50A33F"/>
<path d="M184.028 263.888H134.458L118.056 220.349L132.436 215.977L142.193 220.098C149.759 223.291 154.366 231.028 153.573 239.2C152.665 248.523 158.78 257.087 167.888 259.266L179.132 261.959C180.878 262.381 182.52 263.031 184.028 263.888Z" fill="#399741"/>
<rect x="85.0059" y="37.292" width="77.401" height="0.784996" fill="#E7E7F7"/>
<path d="M152.587 61.4927H112.769V63.768H152.587V61.4927Z" fill="#8DBCF2"/>
<path d="M152.588 56.9419H129.834V59.2173H152.588V56.9419Z" fill="#8DBCF2"/>
<path d="M152.587 66.0435H112.769V68.3188H152.587V66.0435Z" fill="#8DBCF2"/>
<path d="M109.356 51.2534H92.2905V68.3186H109.356V51.2534Z" fill="#8DBCF2"/>
<path d="M152.587 87.6592H112.769V89.9345H152.587V87.6592Z" fill="#8DBCF2"/>
<path d="M152.588 83.1084H129.834V85.3838H152.588V83.1084Z" fill="#8DBCF2"/>
<path d="M152.587 92.21H112.769V94.4853H152.587V92.21Z" fill="#8DBCF2"/>
<path d="M109.356 77.4199H92.2905V94.4851H109.356V77.4199Z" fill="#8DBCF2"/>
<path d="M152.587 113.826H112.769V116.102H152.587V113.826Z" fill="#8DBCF2"/>
<path d="M152.588 109.275H129.834V111.551H152.588V109.275Z" fill="#8DBCF2"/>
<path d="M152.587 118.377H112.769V120.652H152.587V118.377Z" fill="#8DBCF2"/>
<path d="M109.356 103.587H92.2905V120.652H109.356V103.587Z" fill="#8DBCF2"/>
<path d="M109.356 127.478H92.2905V144.543H109.356V127.478Z" fill="#8DBCF2"/>
<path d="M105.942 55.8042L98.9029 62.6303L95.7031 59.5275" stroke="white" stroke-width="2" stroke-linecap="round" stroke-linejoin="round"/>
<path d="M105.935 82.082L98.8955 88.9081L95.6958 85.8053" stroke="white" stroke-width="2" stroke-linecap="round" stroke-linejoin="round"/>
<path d="M105.935 108.249L98.8955 115.075L95.6958 111.972" stroke="white" stroke-width="2" stroke-linecap="round" stroke-linejoin="round"/>
<path d="M105.935 133.277L98.8955 140.103L95.6958 137.001" stroke="white" stroke-width="2" stroke-linecap="round" stroke-linejoin="round"/>
</g>
<defs>
<clipPath id="clip0">
<rect width="284" height="284" fill="white"/>
</clipPath>
</defs>
</svg>
