<svg width="284" height="284" viewBox="0 0 284 284" fill="none" xmlns="http://www.w3.org/2000/svg">
<rect width="284" height="284" fill="white"/>
<g clip-path="url(#clip0)">
<path d="M106.152 134.98C98.1155 153.103 99.8213 165.526 96.4096 176.133C91.3774 191.836 77.1348 189.785 77.1348 189.785C77.1348 189.785 79.2527 176.013 79.7923 157.915C80.0007 150.918 84.2771 144.671 90.729 141.813L106.152 134.98Z" fill="#4F1E2B"/>
<path d="M90.1103 158.164C94.8859 147.154 94.7895 133.865 103.694 116.06C104.435 114.543 105.252 113.006 106.152 111.422L100.734 113.224L87.4403 117.632C86.4016 117.979 85.4032 118.404 84.4453 118.891V166.598C86.5571 164.565 88.5211 161.837 90.1103 158.164Z" fill="#4F1E2B"/>
<path d="M84.4471 118.888V166.598C76.3857 174.351 66.1504 171.858 66.1504 171.858C66.1504 171.858 66.4381 170.353 66.8953 167.943C67.7319 163.56 69.133 156.188 70.377 149.48C71.5806 142.951 72.6427 137.051 72.8884 135.128C73.7903 128.098 78.1942 122.071 84.4471 118.888Z" fill="#7A373B"/>
<path d="M96.3327 88.0503C102.97 85.2334 110.042 81.9714 117.033 78.2858C117.878 77.8438 118.721 77.3879 119.562 76.9336C116.754 75.1809 114.023 73.4082 111.398 71.6447C106.391 68.2949 101.764 64.9728 97.6622 61.9095C97.0464 61.4552 96.4555 61.0008 95.8662 60.5588C92.753 58.2101 88.0505 54.3967 84.4443 51.4365V77.6113C86.7256 79.789 89.2417 81.9052 91.921 84.1969C93.3516 85.4167 94.8274 86.695 96.3327 88.0503Z" fill="#4F1E2B"/>
<path d="M79.2731 47.1631C79.2731 47.1631 68.6568 59.0283 80.3212 73.2285C81.5792 74.7609 82.9632 76.1994 84.4436 77.6133V51.4385C81.4937 49.0159 79.2731 47.1631 79.2731 47.1631Z" fill="#7A373B"/>
<path d="M84.127 92.9469C76.7405 95.753 61.4404 100.657 61.4404 100.657C61.4404 100.657 65.9485 115.855 84.2856 113.62C84.3385 113.614 84.3914 113.602 84.4427 113.596V92.8252C84.34 92.8652 84.2312 92.9084 84.127 92.9469Z" fill="#7A373B"/>
<path d="M108.396 100.852C104.299 95.5975 100.21 91.5438 96.3321 88.0508C96.2388 88.0908 96.1424 88.1339 96.0506 88.1724C91.9749 89.8989 88.0763 91.4468 84.4453 92.8252V113.596C92.2952 112.601 99.9382 109.249 110.153 106.842C110.881 106.671 111.637 106.509 112.391 106.349C111.068 104.378 109.738 102.551 108.409 100.852H108.396Z" fill="#4F1E2B"/>
<path d="M214.079 248.455C211.507 268.374 168.872 281.447 153.026 266.63C146.483 260.513 140.858 243.963 138.892 237.67C138.059 235.001 136.944 232.422 135.509 230.018C133.411 226.501 130.907 223.69 127.709 222.168C114.089 215.715 106.52 204.079 103.105 197.418C101.546 194.37 100.854 192.372 100.854 192.372C100.854 192.372 101.979 192.246 103.996 192.055C115.872 190.9 158.643 187.153 182.886 190.455C185.056 190.741 187.08 191.1 188.904 191.505C195.798 193.058 200.163 195.497 200.028 199.181C199.802 205.166 201.615 210.398 204.106 215.492C204.106 215.507 204.114 215.516 204.124 215.532C204.926 217.195 211.243 229.801 211.322 229.992C213.572 235.427 214.987 241.372 214.079 248.455Z" fill="#7A373B"/>
<path d="M182.886 190.455C181.317 191.795 179.277 192.608 177.055 192.608H107.096C105.997 192.608 104.959 192.417 103.992 192.058C101.975 192.249 100.853 192.369 100.853 192.369C100.853 192.369 101.54 194.378 103.098 197.415C104.112 197.666 105.163 197.798 106.261 197.798H177.886C182.595 197.798 186.7 195.274 188.91 191.509C187.077 191.1 185.06 190.743 182.886 190.455Z" fill="#4F1E2B"/>
<path d="M74.1077 159.609L73.2431 166.13C73.0813 167.323 72.0254 168.193 70.8172 168.131L66.8984 167.943C67.7351 163.56 69.1362 156.189 70.3802 149.48C73.1155 151.961 74.627 155.681 74.1077 159.609Z" fill="#B25256"/>
<path d="M262.486 181.796C261.847 180.849 260.856 180.175 259.699 179.897C258.635 179.642 257.522 179.753 256.569 180.21C256.269 180.352 256.138 180.701 256.281 181.023C256.427 181.325 256.796 181.457 257.102 181.308C257.804 180.975 258.621 180.894 259.41 181.082C260.265 181.287 260.994 181.781 261.463 182.474C261.918 183.15 262.069 183.937 261.886 184.687C261.702 185.439 261.206 186.069 260.488 186.464C259.752 186.868 258.875 186.977 258.02 186.773C256.734 186.464 255.752 185.5 255.518 184.316C255.454 183.988 255.13 183.771 254.796 183.835C254.634 183.868 254.496 183.957 254.403 184.093C254.311 184.228 254.278 184.39 254.309 184.55C254.367 184.843 254.459 185.131 254.58 185.405C255.137 186.665 256.314 187.618 257.73 187.958C258.569 188.159 259.427 188.134 260.219 187.894C260.519 187.803 260.808 187.681 261.085 187.53C262.108 186.968 262.817 186.059 263.081 184.974C263.347 183.889 263.136 182.76 262.486 181.796Z" fill="#B9F6D6"/>
<path d="M232.725 220.479C229.31 221.127 224.896 220.107 220.923 217.438C214.651 213.224 211.825 206.472 214.623 202.388C217.421 198.303 224.799 198.41 231.071 202.624C237.342 206.837 240.168 213.588 237.37 217.672C236.344 219.169 234.702 220.104 232.725 220.479Z" fill="#B9F6D6"/>
<path d="M228.146 176.92C224.611 178.753 220.784 178.42 219.596 176.176C218.409 173.93 220.313 170.625 223.847 168.792C227.382 166.958 231.209 167.291 232.397 169.536C233.584 171.78 231.68 175.086 228.146 176.92Z" fill="#FFC6A8"/>
<path d="M49.9594 58.8603C47.7093 57.5142 46.599 55.2502 47.4822 53.804C48.3639 52.3578 50.9033 52.2777 53.1535 53.6238C55.4036 54.9699 56.5124 57.2339 55.6307 58.6801C54.749 60.1263 52.2096 60.2064 49.9594 58.8603Z" fill="#B9F6D6"/>
<path d="M47.646 145.473C44.5686 145.966 40.1911 144.417 36.1993 141.153C30.6385 136.605 28.2359 130.697 30.7318 127.703C33.2292 124.709 39.5396 125.929 45.1004 130.477C47.6896 132.595 49.6987 135.113 50.7561 137.569C51.8789 140.175 51.8135 142.434 50.568 143.927C49.8651 144.771 48.8558 145.279 47.646 145.473Z" fill="#B9F6D6"/>
<path d="M58.1155 196.947C56.6102 197.39 55.2636 197.201 54.3134 196.409C52.3339 194.758 52.7724 191.126 55.3102 188.139C56.4936 186.746 57.9585 185.722 59.4358 185.255C60.9908 184.759 62.3904 184.94 63.3685 185.754C65.3481 187.404 64.9095 191.036 62.3717 194.023C61.1883 195.416 59.7235 196.44 58.2477 196.907C58.2011 196.92 58.1575 196.934 58.1155 196.947Z" fill="#FFC6A8"/>
<path d="M220.815 107.231L215.484 107.095C214.795 107.14 214.12 106.765 213.77 106.12C213.42 105.476 213.478 104.712 213.918 104.127L216.882 100.084C217.216 99.6438 217.739 99.4035 218.282 99.4482C218.826 99.4882 219.308 99.7932 219.571 100.269L222.121 104.891C222.385 105.37 222.384 105.94 222.118 106.417C221.852 106.892 221.365 107.197 220.815 107.231ZM215.462 105.898L220.794 106.034C220.936 106.023 221.029 105.892 221.06 105.835C221.092 105.78 221.154 105.63 221.062 105.462L218.51 100.84C218.418 100.674 218.258 100.645 218.194 100.64C218.131 100.634 217.969 100.642 217.854 100.794L214.888 104.842C214.728 105.053 214.708 105.319 214.834 105.552C214.962 105.786 215.198 105.904 215.462 105.898Z" fill="#FFC6A8"/>
<path d="M207.959 35.6647L202.628 35.5276C201.939 35.5722 201.264 35.198 200.914 34.5527C200.565 33.9089 200.62 33.145 201.062 32.5597L204.026 28.5169C204.359 28.0764 204.883 27.8361 205.426 27.8808C205.97 27.9208 206.452 28.2258 206.715 28.7017L209.265 33.3236C209.529 33.8026 209.528 34.3725 209.262 34.8499C208.996 35.3258 208.508 35.6308 207.959 35.6647ZM202.606 34.3324L207.939 34.468C208.078 34.4572 208.173 34.3263 208.204 34.2693C208.236 34.2138 208.298 34.0644 208.204 33.8966L205.654 29.2746C205.561 29.1067 205.402 29.079 205.338 29.0744C205.275 29.0682 205.113 29.0759 204.998 29.2284L202.032 33.2744C201.871 33.4854 201.852 33.7518 201.978 33.9844C202.104 34.22 202.342 34.3401 202.606 34.3324Z" fill="#B9F6D6"/>
<path d="M111.844 244.895L106.567 245.665C105.897 245.825 105.168 245.571 104.71 244.995C104.255 244.419 104.179 243.658 104.513 243.006L106.734 238.52C106.986 238.03 107.46 237.704 108.003 237.656C108.547 237.602 109.074 237.822 109.415 238.246L112.727 242.367C113.069 242.794 113.167 243.356 112.986 243.872C112.806 244.386 112.38 244.77 111.844 244.895ZM106.34 244.49L111.616 243.721C111.753 243.687 111.823 243.541 111.845 243.481C111.867 243.421 111.903 243.264 111.781 243.113L108.469 238.991C108.349 238.842 108.188 238.84 108.124 238.846C108.06 238.851 107.901 238.887 107.814 239.056L105.592 243.545C105.471 243.781 105.496 244.046 105.662 244.255C105.825 244.463 106.08 244.542 106.34 244.49Z" fill="#B9F6D6"/>
<path d="M54.506 90.1208C54.3287 90.1208 54.1483 90.0977 53.9726 90.05L53.1064 89.8189C52.8934 89.7604 52.6679 89.8005 52.4875 89.9237C52.2169 90.107 51.8484 90.0407 51.6618 89.7743C51.4752 89.5063 51.5436 89.1413 51.8142 88.9565C52.2838 88.6361 52.8685 88.5376 53.419 88.6839L54.2852 88.9149C54.5666 88.9919 54.8528 88.9241 55.0705 88.7332C55.2882 88.5422 55.3892 88.2696 55.3473 87.9846C55.2415 87.2639 55.523 86.5646 56.0999 86.1134C56.6768 85.6621 57.4295 85.5528 58.1137 85.8223L59.3064 86.292C59.6843 86.3398 60.0466 86.0872 60.1275 85.7145L60.7028 83.0731C60.7993 82.6296 61.0527 82.2338 61.4151 81.9581C61.6747 81.7625 62.048 81.8087 62.247 82.0674C62.446 82.3246 62.3963 82.6943 62.1366 82.8914C61.9966 82.9977 61.8987 83.1502 61.8629 83.3196L61.2875 85.9609C61.0636 86.9851 60.073 87.6366 59.0358 87.4394C58.9985 87.4333 58.9627 87.4225 58.927 87.4086L57.6736 86.9158C57.3875 86.8034 57.0749 86.848 56.8339 87.0375C56.5944 87.2254 56.4762 87.5164 56.5198 87.8168C56.6177 88.4913 56.3705 89.1629 55.8558 89.6141C55.4779 89.9452 54.9974 90.1208 54.506 90.1208Z" fill="#FFC6A8"/>
<path d="M247.395 129.411C247.218 129.411 247.039 129.388 246.862 129.341L245.996 129.11C245.783 129.051 245.557 129.091 245.375 129.214C245.105 129.398 244.736 129.331 244.549 129.065C244.363 128.797 244.431 128.43 244.702 128.247C245.172 127.927 245.756 127.828 246.305 127.975L247.171 128.206C247.453 128.281 247.739 128.215 247.957 128.024C248.174 127.833 248.275 127.56 248.233 127.275C248.128 126.555 248.409 125.855 248.986 125.404C249.563 124.953 250.316 124.845 250.998 125.113L252.193 125.583C252.57 125.63 252.931 125.378 253.014 125.005L253.589 122.364C253.685 121.92 253.937 121.524 254.301 121.249C254.561 121.052 254.934 121.099 255.133 121.358C255.332 121.615 255.284 121.985 255.023 122.182C254.884 122.288 254.786 122.441 254.749 122.61L254.174 125.252C253.95 126.276 252.959 126.927 251.922 126.73C251.885 126.724 251.849 126.713 251.815 126.699L250.56 126.206C250.275 126.094 249.963 126.139 249.722 126.328C249.481 126.516 249.364 126.807 249.407 127.107C249.507 127.782 249.258 128.454 248.743 128.905C248.367 129.236 247.887 129.411 247.395 129.411Z" fill="#B9F6D6"/>
<path d="M181.326 40.6177C181.326 35.7292 177.33 31.7695 172.392 31.7695H102.439C97.5029 31.7695 93.5049 35.7292 93.5049 40.6177V46.9384H181.326V40.6177Z" fill="#E2F7FF"/>
<path d="M181.325 46.9365V178.568C181.325 180.726 180.55 182.696 179.26 184.231C178.28 185.405 176.997 186.319 175.523 186.857C174.551 187.227 173.492 187.422 172.393 187.422H102.436C99.5666 187.422 97.0148 186.082 95.3851 184.002C95.3493 183.966 95.3214 183.931 95.2934 183.889C94.1722 182.409 93.502 180.566 93.502 178.568V46.9365H181.325Z" fill="#F6FDFF"/>
<path d="M159.312 40.8329H167.767C168.437 40.8329 168.98 40.2954 168.98 39.6332V38.6983C168.98 38.036 168.437 37.4985 167.767 37.4985H159.312C158.643 37.4985 158.101 38.036 158.101 38.6983V39.6332C158.101 40.2954 158.643 40.8329 159.312 40.8329Z" fill="#BDD8FF"/>
<path d="M172.207 40.8329H174.589C175.259 40.8329 175.802 40.2954 175.802 39.6332V38.6983C175.802 38.036 175.259 37.4985 174.589 37.4985H172.207C171.538 37.4985 170.995 38.036 170.995 38.6983V39.6332C170.995 40.2954 171.538 40.8329 172.207 40.8329Z" fill="#BDD8FF"/>
<path d="M98.9336 39.0774C98.9336 40.04 99.7204 40.8193 100.692 40.8193C101.664 40.8193 102.451 40.04 102.451 39.0774C102.451 38.1148 101.664 37.3354 100.692 37.3354C99.7204 37.3354 98.9336 38.1163 98.9336 39.0774Z" fill="#BDD8FF"/>
<path d="M111.414 39.0774C111.414 40.04 112.201 40.8193 113.173 40.8193C114.143 40.8193 114.932 40.04 114.932 39.0774C114.932 38.1148 114.145 37.3354 113.173 37.3354C112.201 37.3354 111.414 38.1163 111.414 39.0774Z" fill="#BDD8FF"/>
<path d="M105.174 39.0774C105.174 40.04 105.961 40.8193 106.933 40.8193C107.903 40.8193 108.691 40.04 108.691 39.0774C108.691 38.1148 107.904 37.3354 106.933 37.3354C105.961 37.3354 105.174 38.1163 105.174 39.0774Z" fill="#BDD8FF"/>
<path d="M175.693 90.0961C173.716 101.291 178.898 113.141 175.176 130.534C174.648 132.988 173.932 135.384 173.054 137.717C172.597 138.928 172.08 140.115 171.538 141.289C171.018 142.409 170.454 143.507 169.861 144.591L181.325 176.655L181.327 150.812V77.6133C178.8 80.4687 176.68 84.4808 175.693 90.0961Z" fill="#BDD8FF"/>
<path d="M181.325 176.655L169.861 144.591C167.654 148.628 164.952 152.41 161.834 155.854C157.766 160.385 153.894 165.481 150.6 170.779C150.584 170.804 150.567 170.83 150.552 170.856C147.737 175.398 146.176 180.596 145.871 185.917C145.842 186.438 145.814 186.939 145.787 187.421H172.392C172.717 187.421 173.036 187.401 173.353 187.367C173.409 187.361 173.467 187.351 173.523 187.344C173.776 187.311 174.028 187.27 174.274 187.217C174.322 187.207 174.37 187.194 174.419 187.183C174.674 187.123 174.924 187.054 175.17 186.972C175.21 186.959 175.251 186.946 175.291 186.932C175.49 186.865 175.683 186.783 175.874 186.701C175.995 186.651 176.115 186.598 176.233 186.543C176.457 186.437 176.678 186.324 176.891 186.201C176.922 186.182 176.953 186.162 176.984 186.144C177.351 185.925 177.701 185.679 178.034 185.414C178.099 185.36 178.168 185.308 178.232 185.254C178.375 185.132 178.513 185.004 178.648 184.873C178.804 184.721 178.956 184.562 179.101 184.399C179.154 184.339 179.211 184.283 179.261 184.223C180.388 182.876 181.121 181.2 181.289 179.364C181.312 179.102 181.325 178.837 181.325 178.568V176.655Z" fill="#FFB26F"/>
<path d="M173.231 26.5806H101.601C94.5578 26.5806 88.8477 32.236 88.8477 39.2113V179.982C88.8477 186.957 94.5578 192.613 101.601 192.613H173.231C180.274 192.613 185.984 186.957 185.984 179.982V39.2113C185.984 32.236 180.274 26.5806 173.231 26.5806ZM181.326 56.7581V178.576C181.326 180.726 180.552 182.694 179.264 184.228C177.625 186.179 175.156 187.424 172.393 187.424H102.437C97.5031 187.424 93.5035 183.463 93.5035 178.576V40.6159C93.5035 35.7306 97.503 31.7693 102.436 31.7693H172.393C177.325 31.7693 181.325 35.7306 181.325 40.6174V56.7581H181.326Z" fill="#743B97"/>
<path d="M120.109 168.808C120.109 173.41 116.342 177.14 111.697 177.14C107.051 177.14 103.286 173.41 103.286 168.808C103.286 164.208 107.052 160.478 111.697 160.478C116.342 160.478 120.109 164.208 120.109 168.808Z" fill="#F6FDFF"/>
<path d="M200.027 199.182C197.112 197.435 193.344 198.099 191.21 200.73C180.864 213.496 167.522 219.604 158.805 214.607C148.359 208.643 149.563 189.616 159.108 170.834C161.921 165.288 165.333 159.902 168.992 155.062C174.851 147.348 178.86 138.354 180.064 128.774C182.264 111.183 176.103 99.8551 177.101 88.5612C178.846 68.6348 196.262 67.3257 196.262 67.3257C196.262 67.3257 196.734 72.4605 196.783 73.0519L195.802 83.7498L199.365 92.6503C199.365 92.6503 205.372 124.545 210.395 139.74C214.138 151.117 202.868 182.322 200.027 199.182Z" fill="#7A373B"/>
<path d="M199.365 92.6496C195.468 91.5007 192.331 88.2956 191.515 84.0448L190.179 77.0572C189.946 75.8728 190.678 74.7239 191.846 74.4035L196.783 73.0513C196.797 73.1421 196.805 73.2392 196.811 73.33C197.276 77.8319 198.077 84.5823 199.365 92.6496Z" fill="#B25256"/>
<path d="M160.21 96.082H125.228V98.0619H160.21V96.082Z" fill="#8DBCF2" fill-opacity="0.5"/>
<path d="M160.21 92.1221H140.22V94.102H160.21V92.1221Z" fill="#8DBCF2" fill-opacity="0.5"/>
<path d="M160.21 100.042H125.228V102.021H160.21V100.042Z" fill="#8DBCF2" fill-opacity="0.5"/>
<path d="M122.23 87.1724H107.237V102.021H122.23V87.1724Z" fill="#8DBCF2" fill-opacity="0.5"/>
<path d="M160.21 118.851H125.228V120.831H160.21V118.851Z" fill="#8DBCF2" fill-opacity="0.5"/>
<path d="M160.21 114.891H140.22V116.871H160.21V114.891Z" fill="#8DBCF2" fill-opacity="0.5"/>
<path d="M160.21 122.81H125.228V124.79H160.21V122.81Z" fill="#8DBCF2" fill-opacity="0.5"/>
<path d="M122.23 109.941H107.237V124.79H122.23V109.941Z" fill="#8DBCF2" fill-opacity="0.5"/>
<path d="M160.21 141.619H125.228V143.599H160.21V141.619Z" fill="#8DBCF2" fill-opacity="0.5"/>
<path d="M160.21 137.659H140.22V139.639H160.21V137.659Z" fill="#8DBCF2" fill-opacity="0.5"/>
<path d="M160.21 145.579H125.228V147.558H160.21V145.579Z" fill="#8DBCF2" fill-opacity="0.5"/>
<path d="M122.23 132.709H107.237V147.559H122.23V132.709Z" fill="#8DBCF2" fill-opacity="0.5"/>
<path d="M122.23 153.498H107.237V168.347H122.23V153.498Z" fill="#8DBCF2" fill-opacity="0.5"/>
<path d="M119.231 91.1323L113.046 97.072L110.235 94.3721" stroke="white" stroke-width="2" stroke-linecap="round" stroke-linejoin="round"/>
<path d="M119.224 113.998L113.04 119.937L110.229 117.237" stroke="white" stroke-width="2" stroke-linecap="round" stroke-linejoin="round"/>
<path d="M119.224 136.766L113.04 142.706L110.229 140.006" stroke="white" stroke-width="2" stroke-linecap="round" stroke-linejoin="round"/>
<path d="M119.224 158.544L113.04 164.484L110.229 161.784" stroke="white" stroke-width="2" stroke-linecap="round" stroke-linejoin="round"/>
<path d="M139.18 81.2182C139.185 83.6203 138.346 85.9827 136.815 87.8598C136.079 88.7955 135.141 89.6226 134.053 90.2739C132.42 91.2953 130.475 91.8543 128.478 91.8598H124.491L124.514 108.499L96.5099 92.9208L94.6626 91.8939H92.0024V50.1425C92.0024 45.0188 96.1964 40.8584 101.364 40.8584H139.132L139.138 44.6707L139.18 81.2182Z" fill="#CBCBEE"/>
<path d="M136.259 40.1268C136.255 38.4277 135.695 36.8462 134.744 35.5699C134.691 35.4898 134.623 35.4085 134.557 35.3283C134.074 34.6968 133.47 34.1454 132.798 33.7006C132.704 33.6468 132.623 33.5798 132.529 33.5391C131.332 32.7835 129.918 32.3486 128.407 32.3541L62.363 32.4222C60.9056 32.4287 59.5412 32.823 58.3639 33.5391C57.5654 33.9905 56.8744 34.5891 56.2907 35.2953C55.191 36.6408 54.521 38.3509 54.5254 40.2103L54.5575 81.3017C54.5642 82.7196 54.9485 84.0595 55.644 85.2139C56.0991 85.9926 56.6894 86.6779 57.3871 87.2567C58.7571 88.388 60.508 89.0788 62.4239 89.0755L95.4122 89.0415L121.634 103.625L121.614 89.0129L128.468 89.0074C129.965 89.002 131.371 88.5802 132.562 87.8377C133.334 87.3731 134.025 86.7746 134.581 86.0683C135.668 84.7361 136.31 83.0535 136.307 81.2204L136.259 40.1268Z" fill="#FFD969"/>
<path d="M134.578 86.0663C134.021 86.7725 133.33 87.3711 132.559 87.8357L105.217 60.4415L94.7703 69.1401L84.7909 60.3657L57.3843 87.2558C56.6855 86.677 56.0952 85.9916 55.6411 85.2129L82.762 58.5754L56.289 35.2933C56.8726 34.5871 57.5637 33.9885 58.3622 33.5371L94.8146 65.6069L132.527 33.5371C132.621 33.5777 132.702 33.6447 132.796 33.6986C133.469 34.1434 134.073 34.6947 134.555 35.3263L107.236 58.6721L134.578 86.0663Z" fill="#FFBB33"/>
</g>
<defs>
<clipPath id="clip0">
<rect width="284" height="284" fill="white"/>
</clipPath>
</defs>
</svg>
