<svg width="284" height="284" viewBox="0 0 284 284" fill="none" xmlns="http://www.w3.org/2000/svg">
<rect width="284" height="284" fill="white"/>
<g clip-path="url(#clip0)">
<path d="M148.291 161.731C148.291 161.731 171.505 198.616 176.21 209.693C178.763 215.697 191.832 222.531 201.172 230.794C213.032 241.289 221.7 264.734 221.7 264.734H269.819C276.357 264.734 281.659 259.43 281.659 252.889C273.373 241.144 262.249 225.711 260.925 222.386C258.498 216.291 257.699 209.656 258.625 203.147C260.548 189.571 257.297 160.859 255.597 154.116C252.341 141.164 236.612 141.29 227.294 142.666C222.458 143.382 217.574 142.966 212.786 142.004C211.627 141.776 210.304 141.758 208.833 142.125C206.658 142.678 205.355 144.187 204.592 145.875C203.817 147.583 200.007 148.026 199.208 146.326L178.16 93.8552C176.369 90.0562 171.208 88.7763 167.7 92.2804C165.863 94.1136 165.201 96.8005 165.735 99.3359C166.908 104.895 185.107 179.514 185.571 182.369C185.817 183.883 183.913 184.724 182.934 183.547C176.902 176.288 174.541 169.159 169.555 164.363C165.205 160.18 160.933 158.93 157.371 158.93C152.034 158.931 148.291 161.731 148.291 161.731Z" fill="#79373B"/>
<path d="M158.188 177.761C159.862 175.117 160.754 171.033 159.068 168.132L156.292 163.364C155.824 162.552 154.818 162.249 153.972 162.647L150.146 164.695C152.064 167.806 155.007 172.487 158.188 177.761Z" fill="#B25156"/>
<path d="M175.404 104.918C172.573 105.739 169.63 103.904 169.042 100.949L168.244 97.5705C167.775 95.2137 169.126 92.9002 171.372 92.2102L171.723 92.1033C173.957 91.4174 176.361 92.5592 177.304 94.7537L178.574 97.9831C179.796 100.822 178.307 104.075 175.404 104.918Z" fill="#B25156"/>
<path d="M250.365 267H218.346L213.264 253.504L225.056 249.912L236.738 246.357L241.549 249.663C246.669 253.176 249.832 261.012 250.365 267Z" fill="#50A33F"/>
<path d="M284 251.185V267H250.365C249.536 261.021 246.669 253.176 241.549 249.665L236.738 246.358L272.817 235.371L284 251.185Z" fill="#399741"/>
<path d="M132.166 110.737C138.514 125.196 137.165 135.108 139.861 143.571C143.835 156.099 155.086 154.464 155.086 154.464C155.086 154.464 153.413 143.475 152.987 129.036C152.822 123.453 149.444 118.468 144.348 116.187L132.166 110.737Z" fill="#79373B"/>
<path d="M144.836 129.234C141.064 120.45 141.14 109.847 134.106 95.6412C133.52 94.4303 132.875 93.2045 132.164 91.9409L136.444 93.3791L146.946 96.8967C147.766 97.1727 148.555 97.5123 149.312 97.9005V135.964C147.643 134.342 146.091 132.165 144.836 129.234Z" fill="#79373B"/>
<path d="M149.31 97.897V135.963C155.678 142.15 163.762 140.16 163.762 140.16C163.762 140.16 163.535 138.958 163.173 137.036C162.512 133.54 161.405 127.659 160.422 122.305C159.471 117.096 158.633 112.388 158.438 110.854C157.728 105.246 154.25 100.438 149.31 97.897Z" fill="#79373B"/>
<path d="M139.921 73.2924C134.678 71.0452 122.236 64.7852 121.572 64.4227C123.79 63.0237 146.464 46.4423 149.312 44.0801V64.9638C147.51 66.7023 141.111 72.2115 139.921 73.2924Z" fill="#79373B"/>
<path d="M153.397 40.6694C153.397 40.6694 161.783 50.1358 152.569 61.4666C151.575 62.6896 150.482 63.8369 149.312 64.9639V44.0802C151.644 42.1482 153.397 40.6694 153.397 40.6694Z" fill="#79373B"/>
<path d="M149.563 77.1999C155.398 79.439 167.483 83.3517 167.483 83.3517C167.483 83.3517 163.922 95.478 149.437 93.6948C149.395 93.6894 149.354 93.6799 149.312 93.6745V77.1025C149.395 77.1337 149.482 77.1688 149.563 77.1999Z" fill="#79373B"/>
<path d="M130.392 83.5072C133.63 79.3131 136.858 76.0796 139.921 73.2939C139.994 73.3251 140.071 73.3602 140.144 73.3914C143.364 74.7686 146.444 76.0039 149.312 77.1038V93.6758C143.112 92.8816 137.075 90.2082 129.005 88.2871C128.43 88.1504 127.834 88.0219 127.237 87.8934C128.283 86.3199 129.332 84.8628 130.383 83.5072H130.392V83.5072Z" fill="#79373B"/>
<path d="M46.9127 201.275C48.9439 217.168 81.3524 226.089 95.1372 215.777C98.1584 213.523 100.202 208.964 102.068 203.815V203.808C102.106 203.713 102.138 203.612 102.176 203.516C102.747 201.966 103.287 200.359 103.852 198.753C103.897 198.626 103.941 198.493 103.986 198.366C104.278 197.522 104.57 196.678 104.874 195.832C104.893 195.781 104.912 195.731 104.931 195.679C105.534 194.015 106.162 192.377 106.842 190.816C106.861 190.778 106.88 190.733 106.893 190.695C108.95 186.009 111.463 182.066 115.139 180.301C125.897 175.151 131.876 165.868 134.574 160.553C135.805 158.122 136.351 156.528 136.351 156.528C136.351 156.528 135.463 156.427 133.869 156.274C124.488 155.353 90.7028 152.363 71.553 154.998C69.8396 155.227 68.2397 155.512 66.7994 155.837C61.3534 157.075 57.9643 159.025 58.0725 161.965C58.2497 166.739 56.758 170.911 54.7916 174.976C54.7916 174.988 54.7849 174.995 54.7795 175.007C54.1452 176.334 53.4595 177.648 52.7617 178.975C52.7549 178.987 52.7495 179.006 52.736 179.019C52.2343 179.984 51.7204 180.962 51.2186 181.959C51.1618 182.08 51.0983 182.195 51.0415 182.315C50.4194 183.548 49.823 184.805 49.2834 186.094C49.2198 186.24 49.1563 186.393 49.0927 186.544C47.313 190.881 46.1959 195.624 46.9127 201.275Z" fill="#79373B"/>
<path d="M66.7925 155.838C68.5384 158.843 71.7801 160.858 75.5005 160.858H132.077C132.946 160.858 133.775 160.752 134.577 160.552C135.807 158.129 136.351 156.526 136.351 156.526C136.351 156.526 135.464 156.43 133.871 156.278C133.108 156.565 132.287 156.716 131.42 156.716H76.1591C74.4037 156.716 72.793 156.067 71.5529 155C69.8353 155.228 68.2422 155.514 66.7925 155.838Z" fill="#79373B"/>
<path d="M157.478 130.388L158.161 135.591C158.288 136.542 159.122 137.236 160.077 137.186L163.173 137.036C162.511 133.54 161.405 127.659 160.422 122.305C158.261 124.285 157.067 127.253 157.478 130.388Z" fill="#B25156"/>
<path d="M0 266.54H53.9073C54.9121 264.066 110.949 193.07 110.949 193.07L49.7027 174.421L0 266.54Z" fill="#50A33F"/>
<path d="M53.9071 266.54L92.147 267L110.95 193.069L98.8129 189.38L86.8024 185.716C86.8024 185.716 77.2749 196.137 77.1586 213.361C77.0382 231.257 64.0053 236.302 58.5877 245.203C51.677 256.557 53.9071 266.54 53.9071 266.54Z" fill="#399741"/>
<path d="M142.007 27.1997C142.007 23.2992 138.855 20.1401 134.962 20.1401H79.8029C75.9107 20.1401 72.7583 23.2992 72.7583 27.1997V142.06H142.007V27.1997Z" fill="#FAFAFF"/>
<path d="M142.05 39.3271H72.7515V24.7534C72.7515 21.3426 75.5144 18.5786 78.9237 18.5786H135.879C139.289 18.5786 142.052 21.3426 142.052 24.7534V39.3271H142.05Z" fill="#FAFAFF"/>
<path d="M144.421 31.5166H71.9873V32.6355H144.421V31.5166Z" fill="#D8EAFF"/>
<path d="M90.1596 27.3522H83.4937C82.9649 27.3522 82.5376 26.9234 82.5376 26.3957V25.6489C82.5376 25.1199 82.9663 24.6924 83.4937 24.6924H90.1582C90.687 24.6924 91.1144 25.1213 91.1144 25.6489V26.3971C91.1171 26.9247 90.6884 27.3522 90.1596 27.3522Z" fill="#ACD2FF"/>
<path d="M110.759 27.3522H104.093C103.564 27.3522 103.137 26.9234 103.137 26.3957V25.6489C103.137 25.1199 103.565 24.6924 104.093 24.6924H110.757C111.286 24.6924 111.713 25.1213 111.713 25.6489V26.3971C111.715 26.9247 111.287 27.3522 110.759 27.3522Z" fill="#ACD2FF"/>
<path d="M79.9924 27.3522H78.1153C77.5865 27.3522 77.1592 26.9234 77.1592 26.3957V25.6489C77.1592 25.1199 77.5879 24.6924 78.1153 24.6924H79.9924C80.5212 24.6924 80.9486 25.1213 80.9486 25.6489V26.3971C80.9486 26.9247 80.5212 27.3522 79.9924 27.3522Z" fill="#ACD2FF"/>
<path d="M136.384 27.3414C137.149 27.3414 137.77 26.7193 137.77 25.952C137.77 25.1846 137.149 24.5625 136.384 24.5625C135.618 24.5625 134.998 25.1846 134.998 25.952C134.998 26.7193 135.618 27.3414 136.384 27.3414Z" fill="#ACD2FF"/>
<path d="M126.542 27.3414C127.308 27.3414 127.929 26.7193 127.929 25.952C127.929 25.1846 127.308 24.5625 126.542 24.5625C125.777 24.5625 125.156 25.1846 125.156 25.952C125.156 26.7193 125.777 27.3414 126.542 27.3414Z" fill="#ACD2FF"/>
<path d="M131.462 27.3414C132.228 27.3414 132.849 26.7193 132.849 25.952C132.849 25.1846 132.228 24.5625 131.462 24.5625C130.697 24.5625 130.076 25.1846 130.076 25.952C130.076 26.7193 130.697 27.3414 131.462 27.3414Z" fill="#ACD2FF"/>
<path d="M135.006 152.585H133.311C134.505 152.575 135.376 152.562 135.756 152.544C135.51 152.57 135.26 152.585 135.006 152.585Z" fill="#FAFAFF"/>
<path d="M142.049 138.007V145.526C142.049 149.169 139.295 152.169 135.757 152.544C135.376 152.56 134.505 152.577 133.314 152.582H114.048C112.638 152.582 111.746 152.577 111.697 152.577H110.087L79.8446 152.582C77.6672 152.582 75.7198 151.597 74.4296 150.04C73.4127 148.815 72.8027 147.242 72.8027 145.526V138.007H142.049Z" fill="#D8EAFF"/>
<path d="M101.018 140.951C98.939 140.951 97.2539 142.636 97.2539 144.716C97.2539 146.795 98.939 148.481 101.018 148.481C103.096 148.481 104.781 146.795 104.781 144.716C104.781 142.636 103.096 140.951 101.018 140.951Z" fill="#ACD2FF"/>
<path d="M116.396 140.951C114.317 140.951 112.632 142.636 112.632 144.716C112.632 146.795 114.317 148.481 116.396 148.481C118.474 148.481 120.159 146.795 120.159 144.716C120.159 142.636 118.474 140.951 116.396 140.951Z" fill="#ACD2FF"/>
<path d="M131.773 140.951C129.695 140.951 128.01 142.636 128.01 144.716C128.01 146.795 129.695 148.481 131.773 148.481C133.852 148.481 135.537 146.795 135.537 144.716C135.537 142.636 133.852 140.951 131.773 140.951Z" fill="#ACD2FF"/>
<path d="M69.1299 26.0779V146.649C69.1299 152.215 73.632 156.727 79.1862 156.727H135.668C141.221 156.727 145.725 152.215 145.725 146.649V26.0779C145.725 20.512 141.223 16 135.668 16H79.1862C73.632 16 69.1299 20.512 69.1299 26.0779ZM72.8016 27.1995C72.8016 23.3004 75.9553 20.1399 79.8461 20.1399H135.008C138.898 20.1399 142.052 23.3004 142.052 27.1982V46.6356V87.5143V145.528C142.052 149.427 138.898 152.587 135.007 152.587H117.317H79.8461C77.6675 152.587 75.72 151.596 74.4285 150.038C73.4142 148.815 72.8029 147.243 72.8029 145.528V90.9899V48.3322V27.1995H72.8016Z" fill="#18004C"/>
<path d="M89.0354 123.825C87.2773 121.941 85.5043 120.06 83.9234 118.033C80.7831 114.007 78.4124 109.448 77.1398 104.6C75.9051 99.8962 75.6644 95.0324 75.9917 90.2133C76.2527 86.3656 76.9059 82.5233 76.845 78.6607C76.7747 74.2204 75.4696 69.592 72.2861 66.1948C72.2861 67.702 72.4119 131.545 72.4119 131.545H72.8054V145.521C72.8054 149.163 75.5589 152.164 79.0967 152.538C79.4781 152.555 80.349 152.571 81.5405 152.576L104.768 152.571C104.805 152.549 104.833 152.538 104.833 152.538C104.465 146.224 97.2538 132.636 89.0354 123.825Z" fill="#BEDCFF"/>
<path d="M57.7875 166.271C57.7875 166.271 83.4557 178.72 91.1467 174.268C99.3975 169.51 100.573 153.914 93.0332 138.928C90.8113 134.503 88.116 130.206 85.2259 126.343C80.5967 120.19 75.3049 113.428 74.3542 105.784C72.615 91.7489 77.4822 82.71 76.6938 73.6995C75.3157 57.8013 61.5579 56.7568 61.5579 56.7568C61.5579 56.7568 56.3499 97.5326 50.3954 114.535C47.6758 122.298 54.105 141.922 57.3209 155.792C58.1892 159.544 58.1256 162.434 57.7875 166.271Z" fill="#79373B"/>
<path d="M58.5879 76.9641C61.6659 76.0468 64.5884 73.4884 65.2321 70.098L66.2884 64.5226C66.4723 63.5769 65.8935 62.6609 64.9711 62.4052L60.9424 61.3188C60.9424 61.3188 59.6049 70.5268 58.5879 76.9641Z" fill="#B25156"/>
<rect x="83" y="80" width="48" height="16" stroke="#ACD2FF" stroke-width="2"/>
<rect x="82" y="38" width="30" height="35" fill="#8DBCF2"/>
<rect x="95.5239" y="101" width="36.5143" height="1.7588" rx="0.879402" fill="#D8EAFF"/>
<rect x="116.215" y="104.382" width="15.8229" height="1.7588" rx="0.879402" fill="#D8EAFF"/>
<rect x="110.806" y="107.494" width="20.9619" height="1.75883" rx="0.879414" fill="#D8EAFF"/>
<rect x="110.67" y="111" width="20.9619" height="1.75881" rx="0.879406" fill="#D8EAFF"/>
<rect x="82.4058" y="101" width="11.7657" height="1.7588" rx="0.879402" fill="#ACD2FF"/>
<rect x="82.4058" y="104.382" width="17.8514" height="1.7588" rx="0.879402" fill="#D8EAFF"/>
<rect x="82.1353" y="107.494" width="27.5886" height="1.75883" rx="0.879414" fill="#ACD2FF"/>
<rect x="82" y="111" width="27.5886" height="1.75881" rx="0.879406" fill="#ACD2FF"/>
<rect x="101.339" y="104.382" width="13.659" height="1.7588" rx="0.879402" fill="#ACD2FF"/>
<rect x="114" y="51" width="20" height="4" rx="2" fill="#ACD2FF"/>
<rect x="114" y="45" width="20" height="4" rx="2" fill="#ACD2FF"/>
<rect x="114" y="57" width="20" height="4" rx="2" fill="#ACD2FF"/>
<rect x="114" y="63" width="20" height="4" rx="2" fill="#ACD2FF"/>
<path d="M94.4385 90.1689C94.4385 89.8564 94.3278 89.6156 94.1064 89.4463C93.8883 89.277 93.4928 89.1061 92.9199 88.9336C92.347 88.7611 91.8913 88.569 91.5527 88.3574C90.9049 87.9505 90.5811 87.4199 90.5811 86.7656C90.5811 86.1927 90.8138 85.7207 91.2793 85.3496C91.748 84.9785 92.3551 84.793 93.1006 84.793C93.5954 84.793 94.0365 84.8841 94.4238 85.0664C94.8112 85.2487 95.1156 85.5091 95.3369 85.8477C95.5583 86.1829 95.6689 86.5557 95.6689 86.9658H94.4385C94.4385 86.5947 94.3213 86.305 94.0869 86.0967C93.8558 85.8851 93.5238 85.7793 93.0908 85.7793C92.6872 85.7793 92.373 85.8656 92.1484 86.0381C91.9271 86.2106 91.8164 86.4515 91.8164 86.7607C91.8164 87.0212 91.9368 87.2393 92.1777 87.415C92.4186 87.5876 92.8158 87.7568 93.3691 87.9229C93.9225 88.0856 94.3669 88.2728 94.7021 88.4844C95.0374 88.6927 95.2832 88.9336 95.4395 89.207C95.5957 89.4772 95.6738 89.7946 95.6738 90.1592C95.6738 90.7516 95.446 91.2236 94.9902 91.5752C94.5378 91.9235 93.9225 92.0977 93.1445 92.0977C92.6302 92.0977 92.1566 92.0033 91.7236 91.8145C91.2939 91.6224 90.9587 91.3587 90.7178 91.0234C90.4801 90.6882 90.3613 90.2975 90.3613 89.8516H91.5967C91.5967 90.2552 91.7301 90.5677 91.9971 90.7891C92.264 91.0104 92.6465 91.1211 93.1445 91.1211C93.5742 91.1211 93.8965 91.0348 94.1113 90.8623C94.3294 90.6865 94.4385 90.4554 94.4385 90.1689ZM100.942 88.8262H98.0222V91.0137H101.435V92H96.7868V84.8906H101.401V85.8867H98.0222V87.8496H100.942V88.8262ZM103.705 91.0137H106.933V92H102.47V84.8906H103.705V91.0137ZM112.065 88.8262H109.145V91.0137H112.558V92H107.909V84.8906H112.524V85.8867H109.145V87.8496H112.065V88.8262ZM119.017 89.6855C118.946 90.444 118.666 91.0365 118.178 91.4629C117.689 91.8861 117.04 92.0977 116.229 92.0977C115.663 92.0977 115.163 91.9642 114.73 91.6973C114.301 91.4271 113.969 91.0446 113.734 90.5498C113.5 90.055 113.378 89.4805 113.368 88.8262V88.1621C113.368 87.4915 113.487 86.9007 113.724 86.3896C113.962 85.8786 114.302 85.4847 114.745 85.208C115.191 84.9313 115.705 84.793 116.288 84.793C117.072 84.793 117.704 85.0062 118.182 85.4326C118.661 85.859 118.939 86.4613 119.017 87.2393H117.787C117.728 86.7282 117.579 86.3604 117.338 86.1357C117.1 85.9079 116.75 85.7939 116.288 85.7939C115.751 85.7939 115.337 85.9909 115.048 86.3848C114.761 86.7754 114.615 87.3499 114.608 88.1084V88.7383C114.608 89.5065 114.745 90.0924 115.018 90.4961C115.295 90.8997 115.699 91.1016 116.229 91.1016C116.714 91.1016 117.079 90.9925 117.323 90.7744C117.567 90.5563 117.722 90.1934 117.787 89.6855H119.017ZM125.145 85.8867H122.928V92H121.703V85.8867H119.505V84.8906H125.145V85.8867Z" fill="#2C81E1"/>
</g>
<defs>
<clipPath id="clip0">
<rect width="284" height="251" fill="white" transform="translate(0 16)"/>
</clipPath>
</defs>
</svg>
