<svg width="284" height="284" viewBox="0 0 284 284" fill="none" xmlns="http://www.w3.org/2000/svg">
<rect width="284" height="284" fill="white"/>
<path d="M111.001 131.642C103.796 147.584 105.327 158.512 102.268 167.845C97.756 181.658 84.9868 179.855 84.9868 179.855C84.9868 179.855 86.8856 167.738 87.3697 151.819C87.5563 145.664 91.3903 140.166 97.1745 137.652L111.001 131.642Z" fill="#79373B"/>
<path d="M96.6201 152.035C100.902 142.35 100.814 130.66 108.798 114.996C109.462 113.662 110.195 112.309 111.003 110.915L106.145 112.501L94.2264 116.38C93.2946 116.685 92.3993 117.058 91.5405 117.486V159.456C93.4339 157.667 95.196 155.267 96.6201 152.035Z" fill="#79373B"/>
<path d="M91.5422 117.484V159.456C84.3151 166.277 75.1392 164.083 75.1392 164.083C75.1392 164.083 75.3975 162.76 75.8072 160.638C76.5578 156.784 77.8128 150.299 78.9285 144.397C80.0064 138.653 80.9598 133.463 81.1802 131.77C81.9876 125.585 85.9366 120.285 91.5422 117.484Z" fill="#79373B"/>
<path d="M102.198 90.356C108.148 87.8786 114.489 85.0082 120.758 81.7659C121.515 81.3768 122.27 80.976 123.024 80.5764C120.508 79.0348 118.058 77.4747 115.704 75.9239C111.215 72.9772 107.068 70.0543 103.389 67.3587C102.837 66.9591 102.309 66.5596 101.78 66.1705C98.9885 64.1045 94.7731 60.7504 91.5396 58.1455V81.1718C93.5857 83.088 95.8415 84.9491 98.2433 86.9652C99.5254 88.0389 100.849 89.164 102.198 90.356Z" fill="#79373B"/>
<path d="M86.9049 54.3853C86.9049 54.3853 77.3868 64.8233 87.8448 77.3156C88.9727 78.6641 90.2128 79.9297 91.5408 81.173V58.1467C88.8942 56.015 86.9049 54.3853 86.9049 54.3853Z" fill="#79373B"/>
<path d="M91.2553 94.6626C84.6327 97.1322 70.9155 101.446 70.9155 101.446C70.9155 101.446 74.9578 114.816 91.3973 112.85C91.4447 112.844 91.492 112.834 91.5393 112.827V94.5562C91.446 94.5903 91.3487 94.6284 91.2553 94.6626Z" fill="#79373B"/>
<path d="M113.014 101.617C109.34 96.993 105.675 93.4273 102.198 90.3545C102.115 90.3887 102.027 90.4281 101.945 90.4623C98.2906 91.9816 94.7961 93.3432 91.5396 94.555V112.827C98.5773 111.952 105.43 109.004 114.588 106.886C115.241 106.734 115.918 106.594 116.595 106.452C115.409 104.717 114.218 103.11 113.025 101.617H113.014Z" fill="#79373B"/>
<path d="M207.763 231.466C205.457 248.99 168.674 258.826 153.027 247.457C149.597 244.972 147.278 239.945 145.16 234.267V234.261C145.116 234.156 145.08 234.044 145.037 233.939C144.389 232.23 143.776 230.458 143.135 228.688C143.085 228.547 143.034 228.402 142.984 228.261C142.652 227.33 142.321 226.399 141.975 225.468C141.953 225.412 141.932 225.356 141.91 225.3C141.226 223.465 140.513 221.659 139.742 219.938C139.72 219.896 139.699 219.847 139.684 219.805C137.35 214.638 134.498 210.291 130.325 208.344C118.115 202.667 111.329 192.431 108.267 186.57C106.87 183.889 106.249 182.132 106.249 182.132C106.249 182.132 107.258 182.02 109.066 181.852C119.713 180.838 158.06 177.54 179.794 180.445C181.739 180.697 183.555 181.011 185.19 181.369C191.371 182.734 195.218 184.883 195.095 188.124C194.894 193.389 196.587 197.989 198.819 202.469C198.819 202.484 198.826 202.49 198.834 202.505C199.555 203.968 200.333 205.417 201.125 206.88C201.132 206.895 201.14 206.916 201.154 206.929C201.723 207.993 202.306 209.071 202.875 210.17C202.94 210.303 203.012 210.429 203.077 210.561C203.783 211.919 204.46 213.306 205.073 214.726C205.145 214.888 205.218 215.055 205.289 215.223C207.308 220.006 208.577 225.235 207.763 231.466Z" fill="#79373B"/>
<path d="M178.4 39.5257C178.4 35.2241 174.816 31.7412 170.39 31.7412H107.673C103.248 31.7412 99.6631 35.2241 99.6631 39.5257V44.6436H178.4V39.5257Z" fill="#399741"/>
<path d="M99.6631 44.6436V95.7285V169.988C99.6631 174.29 103.247 177.773 107.673 177.773H170.39C172.866 177.773 175.083 176.682 176.549 174.964C177.706 173.614 178.4 171.883 178.4 169.988V95.7298V44.6436H99.6631V44.6436Z" fill="#FBFBFF"/>
<path d="M109.691 173.519C111.697 173.519 113.324 171.938 113.324 169.989C113.324 168.039 111.697 166.458 109.691 166.458C107.685 166.458 106.059 168.039 106.059 169.989C106.059 171.938 107.685 173.519 109.691 173.519Z" fill="#AFAFEB"/>
<path d="M124.057 173.519C126.063 173.519 127.69 171.938 127.69 169.989C127.69 168.039 126.063 166.458 124.057 166.458C122.051 166.458 120.425 168.039 120.425 169.989C120.425 171.938 122.051 173.519 124.057 173.519Z" fill="#E7E7F7"/>
<path d="M138.424 173.519C140.43 173.519 142.057 171.938 142.057 169.989C142.057 168.039 140.43 166.458 138.424 166.458C136.418 166.458 134.792 168.039 134.792 169.989C134.792 171.938 136.418 173.519 138.424 173.519Z" fill="#E7E7F7"/>
<path d="M152.79 173.519C154.796 173.519 156.423 171.938 156.423 169.989C156.423 168.039 154.796 166.458 152.79 166.458C150.784 166.458 149.158 168.039 149.158 169.989C149.158 171.938 150.784 173.519 152.79 173.519Z" fill="#E7E7F7"/>
<path d="M167.156 173.519C169.163 173.519 170.789 171.938 170.789 169.989C170.789 168.039 169.163 166.458 167.156 166.458C165.15 166.458 163.524 168.039 163.524 169.989C163.524 171.938 165.15 173.519 167.156 173.519Z" fill="#E7E7F7"/>
<path d="M121.594 132.735H113.382V135.303H121.594V132.735Z" fill="#CBCBEE"/>
<path d="M129.978 141.284H113.382V143.852H129.978V141.284Z" fill="#E7E7F7"/>
<path d="M152.201 141.284H133.622V143.852H152.201V141.284Z" fill="#CBCBEE"/>
<path d="M164.442 141.284H155.856V143.852H164.442V141.284Z" fill="#E7E7F7"/>
<path d="M164.444 148.997H146.431V151.565H164.444V148.997Z" fill="#E7E7F7"/>
<path d="M164.443 132.735H125.409V135.303H164.443V132.735Z" fill="#E7E7F7"/>
<path d="M142.911 148.997H113.382V151.565H142.911V148.997Z" fill="#CBCBEE"/>
<path d="M178.4 161.011H99.7495V161.711H178.4V161.011Z" fill="#E7E7F7"/>
<path d="M114.838 64.128C119.215 64.128 122.763 60.6799 122.763 56.4263C122.763 52.1728 119.215 48.7246 114.838 48.7246C110.461 48.7246 106.913 52.1728 106.913 56.4263C106.913 60.6799 110.461 64.128 114.838 64.128Z" fill="#E7E7F7"/>
<path d="M139.031 64.128C143.408 64.128 146.956 60.6799 146.956 56.4263C146.956 52.1728 143.408 48.7246 139.031 48.7246C134.654 48.7246 131.106 52.1728 131.106 56.4263C131.106 60.6799 134.654 64.128 139.031 64.128Z" fill="#CBCBEE"/>
<path d="M163.225 48.7246C158.848 48.7246 155.3 52.172 155.3 56.4263C155.3 60.6807 158.847 64.128 163.225 64.128C167.601 64.128 171.15 60.6807 171.15 56.4263C171.15 52.172 167.601 48.7246 163.225 48.7246ZM163.225 62.727C159.649 62.727 156.741 59.9 156.741 56.4263C156.741 52.9514 159.65 50.1256 163.225 50.1256C166.799 50.1256 169.708 52.9527 169.708 56.4263C169.708 59.9 166.799 62.727 163.225 62.727Z" fill="#E7E7F7"/>
<path d="M178.313 68.6992H99.6631V69.3997H178.313V68.6992Z" fill="#E7E7F7"/>
<path d="M164.442 76.9565H113.382V126.579H164.442V76.9565Z" fill="#E7E7F7"/>
<path d="M179.798 180.443C178.391 181.621 176.562 182.337 174.57 182.337H111.848C110.864 182.337 109.932 182.169 109.066 181.854C107.258 182.022 106.252 182.127 106.252 182.127C106.252 182.127 106.869 183.895 108.266 186.567C109.174 186.787 110.117 186.903 111.102 186.903H175.317C179.539 186.903 183.219 184.683 185.2 181.37C183.554 181.011 181.747 180.696 179.798 180.443Z" fill="#79373B"/>
<path d="M171.144 27.1768H106.92C100.611 27.1768 95.4883 32.154 95.4883 38.2864V171.23C95.4883 177.369 100.61 182.34 106.92 182.34H171.144C177.453 182.34 182.576 177.369 182.576 171.23V38.2864C182.576 32.1553 177.453 27.1768 171.144 27.1768ZM178.403 169.995C178.403 171.886 177.708 173.614 176.555 174.966C175.08 176.679 172.866 177.779 170.394 177.779H107.671C103.251 177.779 99.6604 174.29 99.6604 169.995V39.5232C99.6604 35.2281 103.251 31.7386 107.671 31.7386H170.393C174.812 31.7386 178.403 35.2281 178.403 39.5232V169.995Z" fill="#5A276D"/>
<path d="M119.313 39.6939H111.733C111.132 39.6939 110.646 39.2208 110.646 38.6372V37.8145C110.646 37.231 111.132 36.7578 111.733 36.7578H119.313C119.913 36.7578 120.4 37.231 120.4 37.8145V38.6372C120.399 39.2221 119.913 39.6939 119.313 39.6939Z" fill="#009698"/>
<path d="M107.753 39.6939H105.618C105.017 39.6939 104.53 39.2208 104.53 38.6372V37.8145C104.53 37.231 105.017 36.7578 105.618 36.7578H107.753C108.353 36.7578 108.839 37.231 108.839 37.8145V38.6372C108.839 39.2221 108.352 39.6939 107.753 39.6939Z" fill="#009698"/>
<path d="M171.869 39.6836C172.74 39.6836 173.446 38.9975 173.446 38.1511C173.446 37.3048 172.74 36.6187 171.869 36.6187C170.998 36.6187 170.292 37.3048 170.292 38.1511C170.292 38.9975 170.998 39.6836 171.869 39.6836Z" fill="#009698"/>
<path d="M160.678 39.6836C161.549 39.6836 162.255 38.9975 162.255 38.1511C162.255 37.3048 161.549 36.6187 160.678 36.6187C159.808 36.6187 159.102 37.3048 159.102 38.1511C159.102 38.9975 159.808 39.6836 160.678 39.6836Z" fill="#009698"/>
<path d="M166.275 39.6836C167.145 39.6836 167.851 38.9975 167.851 38.1511C167.851 37.3048 167.145 36.6187 166.275 36.6187C165.404 36.6187 164.698 37.3048 164.698 38.1511C164.698 38.9975 165.404 39.6836 166.275 39.6836Z" fill="#009698"/>
<path d="M173.349 92.155C171.577 102.004 176.221 112.428 172.886 127.73C172.413 129.888 171.771 131.998 170.982 134.049C168.729 139.916 165.257 145.31 160.923 150.005C157.276 153.991 153.804 158.474 150.852 163.134C147.74 168.05 145.346 173.044 143.798 177.774H170.39C170.697 177.774 170.998 177.757 171.296 177.724C173.403 177.489 175.258 176.465 176.548 174.962C177.705 173.605 178.4 171.868 178.4 169.977V145.568V81.1729C176.133 83.6858 174.235 87.2146 173.349 92.155Z" fill="#CBCBEE"/>
<path d="M195.104 188.12L190.331 185.313C180.776 199.324 166.876 206.599 158.148 201.69C148.783 196.443 149.861 179.705 158.42 163.182C160.942 158.303 164.001 153.565 167.281 149.305C172.535 142.521 176.129 134.608 177.207 126.18C179.182 110.705 173.656 100.738 174.552 90.8038C176.117 73.2752 191.732 72.1226 191.732 72.1226C191.732 72.1226 191.826 73.4092 192.047 75.7145C192.104 76.1614 192.154 76.6398 192.198 77.1615C192.21 77.2417 192.217 77.3271 192.224 77.4073C192.64 81.3672 193.359 87.3052 194.513 94.4036C194.564 94.7217 194.615 95.0476 194.672 95.3723C194.766 95.9795 194.868 96.5854 194.975 97.1991C196.917 108.574 199.9 122.462 204.403 135.83C207.755 145.836 197.652 173.287 195.104 188.12Z" fill="#79373B"/>
<path d="M194.511 94.401C191.018 93.3903 188.205 90.5698 187.473 86.832L186.275 80.6851C186.067 79.6428 186.722 78.6322 187.769 78.3496L192.197 77.1602C192.209 77.2403 192.216 77.3258 192.223 77.4059C192.638 81.3646 193.357 87.3038 194.511 94.401Z" fill="#B25156"/>
<path d="M82.2715 153.307L81.4952 159.044C81.3505 160.092 80.4039 160.858 79.3193 160.803L75.8071 160.637C76.5577 156.782 77.8127 150.297 78.9284 144.395C81.383 146.578 82.7381 149.851 82.2715 153.307Z" fill="#B25156"/>
<path d="M248.045 266.791H200.153C198.633 265.951 196.976 265.313 195.218 264.901L183.878 262.262C174.693 260.126 168.526 251.732 169.442 242.596C170.241 234.587 165.594 227.005 157.965 223.875L148.125 219.835L206.809 202.472L248.045 266.791Z" fill="#399741"/>
<path d="M200.153 266.791H150.165L133.624 224.12L148.126 219.835L157.966 223.876C165.594 227.005 170.241 234.587 169.442 242.596C168.528 251.733 174.693 260.127 183.878 262.262L195.218 264.901C196.976 265.314 198.633 265.951 200.153 266.791Z" fill="#50A33F"/>
<path d="M153.096 75.4728C153.103 78.3472 152.078 81.1742 150.209 83.4203C149.309 84.5401 148.164 85.5297 146.836 86.3091C144.841 87.5314 142.466 88.2004 140.028 88.2069H135.159L135.188 108.118L100.991 89.4778L98.7357 88.249H95.4873V38.2864C95.4873 32.1553 100.609 27.1768 106.919 27.1768H153.039L153.046 31.7386L153.096 75.4728Z" fill="#CBCBEE"/>
<path d="M149.53 26.3013C149.524 24.2681 148.841 22.3755 147.68 20.8483C147.615 20.7523 147.532 20.6551 147.451 20.5591C146.861 19.8034 146.124 19.1437 145.303 18.6114C145.189 18.547 145.09 18.4668 144.975 18.4182C143.513 17.5139 141.786 16.9935 139.941 17.0001L59.292 17.0815C57.5123 17.0894 55.8462 17.5613 54.4086 18.4182C53.4335 18.9583 52.5896 19.6746 51.8769 20.5197C50.534 22.1297 49.7158 24.1761 49.7212 26.4011L49.7604 75.5725C49.7686 77.2693 50.2378 78.8727 51.0871 80.254C51.643 81.1858 52.3638 82.0059 53.2158 82.6986C54.8887 84.0523 57.0268 84.879 59.3664 84.875L99.6498 84.8343L131.67 102.285L131.646 84.8001L140.016 84.7935C141.844 84.787 143.56 84.2823 145.015 83.3938C145.957 82.8379 146.802 82.1216 147.481 81.2765C148.808 79.6823 149.592 77.6688 149.588 75.4753L149.53 26.3013Z" fill="#8DBCF2"/>
<path d="M30.9538 171.096C30.2127 171.967 29.1484 172.532 27.9556 172.688C26.8602 172.834 25.7539 172.612 24.8438 172.066C24.5571 171.896 24.4611 171.539 24.6396 171.236C24.8181 170.952 25.2022 170.859 25.4956 171.037C26.1637 171.436 26.9778 171.599 27.7893 171.492C28.671 171.376 29.454 170.962 29.9963 170.326C30.5251 169.705 30.7591 168.945 30.6536 168.187C30.5481 167.428 30.114 166.757 29.4338 166.295C28.7373 165.822 27.8691 165.628 26.9859 165.743C25.6633 165.918 24.576 166.77 24.2163 167.913C24.1175 168.231 23.77 168.411 23.4414 168.315C23.2818 168.267 23.152 168.164 23.0735 168.022C22.9951 167.88 22.9788 167.716 23.0275 167.562C23.1154 167.28 23.2372 167.005 23.3886 166.747C24.0783 165.562 25.3604 164.739 26.8196 164.547C27.6838 164.433 28.5425 164.543 29.3134 164.86C29.6055 164.98 29.8841 165.13 30.1451 165.307C31.1148 165.964 31.7314 166.93 31.8856 168.026C32.0371 169.12 31.7071 170.211 30.9538 171.096Z" fill="#E7E7F7"/>
<path d="M191.528 22.9684C192.224 22.0641 193.26 21.4491 194.442 21.2361C195.528 21.039 196.645 21.2072 197.581 21.7106C197.876 21.867 197.989 22.2192 197.827 22.5307C197.663 22.8225 197.283 22.9329 196.983 22.7686C196.296 22.4019 195.475 22.2784 194.669 22.4229C193.794 22.5807 193.033 23.0315 192.523 23.6912C192.025 24.3379 191.831 25.108 191.974 25.8598C192.117 26.6129 192.584 27.2621 193.287 27.6919C194.007 28.1309 194.884 28.2847 195.759 28.1269C197.072 27.8904 198.115 26.9875 198.417 25.8296C198.499 25.5076 198.837 25.3104 199.171 25.3919C199.332 25.4327 199.468 25.5299 199.553 25.6679C199.638 25.8059 199.662 25.9689 199.622 26.1253C199.547 26.4118 199.44 26.6917 199.303 26.9559C198.672 28.1729 197.434 29.0548 195.986 29.3164C195.129 29.4714 194.266 29.4018 193.481 29.1219C193.183 29.0167 192.898 28.88 192.627 28.7157C191.626 28.1059 190.961 27.1701 190.753 26.0819C190.545 24.995 190.82 23.8884 191.528 22.9684Z" fill="#E7E7F7"/>
<path d="M244.491 206.673C245.565 207.104 246.434 207.925 246.94 208.986C247.406 209.96 247.515 211.052 247.247 212.059C247.164 212.375 246.841 212.569 246.491 212.494C246.16 212.411 245.954 212.082 246.043 211.758C246.238 211.019 246.157 210.216 245.813 209.494C245.439 208.71 244.8 208.105 244.016 207.79C243.248 207.482 242.432 207.49 241.718 207.812C241.004 208.134 240.471 208.735 240.219 209.502C239.959 210.288 240.024 211.153 240.398 211.938C240.961 213.114 242.119 213.872 243.348 213.868C243.69 213.867 243.97 214.137 243.973 214.469C243.971 214.631 243.909 214.782 243.793 214.898C243.677 215.012 243.52 215.075 243.355 215.076C243.05 215.078 242.746 215.046 242.447 214.982C241.077 214.691 239.891 213.744 239.271 212.446C238.904 211.678 238.758 210.847 238.842 210.039C238.873 209.732 238.938 209.43 239.035 209.134C239.395 208.041 240.163 207.181 241.195 206.716C242.227 206.25 243.397 206.235 244.491 206.673Z" fill="#E7E7F7"/>
<path d="M54.2525 221.258C50.8797 217.682 52.6878 210.718 58.284 205.733C63.8801 200.748 71.1762 199.6 74.549 203.178C77.9219 206.754 76.1138 213.718 70.5176 218.703C66.973 221.862 62.7468 223.478 59.2671 223.331C57.2534 223.246 55.4899 222.57 54.2525 221.258ZM59.1387 206.64C54.0564 211.166 52.2834 217.352 55.1856 220.428C58.0879 223.504 64.582 222.323 69.6642 217.798C74.7465 213.271 76.5195 207.085 73.6173 204.01C72.5989 202.931 71.1411 202.376 69.456 202.304C66.3347 202.171 62.4385 203.701 59.1387 206.64Z" fill="#BDEEE8"/>
<path d="M60.9937 128.816C63.4025 126.475 62.3095 121.617 58.5523 117.966C54.7952 114.315 49.7967 113.252 47.3879 115.593C44.9791 117.934 46.0721 122.792 49.8293 126.443C53.5864 130.095 58.5849 131.157 60.9937 128.816Z" fill="#BDEEE8"/>
<path d="M233.792 64.3621C238.043 62.0069 240.35 58.1574 238.946 55.7654C237.542 53.3734 232.959 53.3445 228.709 55.6997C224.458 58.0549 222.151 61.9044 223.555 64.2964C224.958 66.6884 229.542 66.7186 233.792 64.3621Z" fill="#BDEEE8"/>
<path d="M237.83 151.525C237.304 149.892 238.025 148.021 239.858 146.26C241.585 144.602 244.124 143.205 247.012 142.328C253.212 140.446 258.894 141.537 259.947 144.813C260.999 148.089 256.967 152.129 250.765 154.011C246.314 155.362 242.131 155.18 239.735 153.76C238.793 153.201 238.128 152.451 237.83 151.525ZM247.392 143.507C244.694 144.326 242.336 145.615 240.751 147.138C239.273 148.559 238.666 149.986 239.042 151.157C239.856 153.686 245.051 154.452 250.387 152.832C255.725 151.213 259.548 147.709 258.737 145.181C258.535 144.554 258.065 144.037 257.389 143.636C255.338 142.42 251.406 142.289 247.392 143.507Z" fill="#BDEEE8"/>
<path d="M230.379 173.92C228.919 173.694 227.391 172.951 226.075 171.829C223.252 169.421 222.314 166.123 223.94 164.323C224.743 163.433 226.036 163.073 227.572 163.315C229.032 163.541 230.56 164.283 231.876 165.406C234.699 167.813 235.637 171.111 234.011 172.912C233.231 173.776 231.991 174.139 230.507 173.938C230.465 173.933 230.422 173.926 230.379 173.92Z" fill="#E7E7F7"/>
<path d="M84.4215 231.615C83.5059 230.636 82.846 229.247 82.5633 227.704C81.9588 224.392 83.2355 221.495 85.4723 221.109C86.5772 220.918 87.7213 221.381 88.6829 222.415C89.5984 223.394 90.2584 224.784 90.541 226.327C91.1469 229.639 89.8689 232.535 87.6321 232.922C86.5583 233.107 85.4507 232.673 84.5026 231.701C84.4756 231.673 84.4472 231.644 84.4215 231.615Z" fill="#E7E7F7"/>
<path d="M214.333 107.698C214.513 107.698 214.694 107.675 214.871 107.628L215.746 107.399C215.961 107.34 216.188 107.381 216.372 107.503C216.645 107.685 217.019 107.619 217.207 107.355C217.395 107.089 217.326 106.726 217.054 106.544C216.579 106.226 215.989 106.128 215.434 106.274L214.559 106.503C214.275 106.579 213.987 106.512 213.766 106.323C213.546 106.134 213.444 105.863 213.488 105.58C213.594 104.867 213.31 104.173 212.728 103.726C212.145 103.279 211.385 103.171 210.695 103.437L209.49 103.902C209.109 103.948 208.742 103.698 208.661 103.329L208.079 100.712C207.982 100.273 207.726 99.8803 207.36 99.607C207.098 99.4125 206.722 99.4598 206.519 99.7147C206.317 99.9697 206.367 100.336 206.63 100.532C206.77 100.637 206.869 100.789 206.907 100.957L207.488 103.575C207.714 104.589 208.715 105.235 209.762 105.039C209.8 105.032 209.836 105.022 209.871 105.009L211.137 104.52C211.425 104.408 211.742 104.453 211.984 104.639C212.226 104.826 212.345 105.114 212.3 105.412C212.2 106.08 212.452 106.746 212.971 107.193C213.352 107.523 213.836 107.698 214.333 107.698Z" fill="#E7E7F7"/>
<path d="M33.1407 69.2588C33.3138 69.3061 33.4936 69.3324 33.6789 69.3337L34.585 69.3455C34.8081 69.3455 35.0164 69.4454 35.1584 69.611C35.3707 69.8581 35.748 69.8936 36.0023 69.6899C36.2579 69.4848 36.293 69.1168 36.0821 68.8698C35.7156 68.4387 35.1746 68.1876 34.5999 68.1811L33.6938 68.1692C33.399 68.1666 33.1407 68.026 32.9824 67.7855C32.8242 67.545 32.8026 67.2584 32.9216 66.9969C33.2245 66.3384 33.1461 65.5959 32.7106 65.011C32.2751 64.4261 31.5746 64.1212 30.8362 64.1935L29.546 64.3223C29.166 64.2658 28.8847 63.9293 28.9091 63.5508L29.0849 60.8789C29.1146 60.4307 28.9794 59.9852 28.7021 59.6251C28.5047 59.3688 28.1287 59.3136 27.8637 59.5068C27.5986 59.6986 27.5432 60.064 27.742 60.3229C27.8488 60.4609 27.9002 60.6331 27.8894 60.8053L27.7136 63.4772C27.6459 64.5142 28.4276 65.4 29.4892 65.4894C29.5271 65.4933 29.565 65.492 29.6028 65.4894L30.9579 65.3553C31.2676 65.3238 31.5584 65.4513 31.7396 65.6957C31.9208 65.9402 31.9533 66.2491 31.8275 66.5224C31.5448 67.1388 31.5989 67.8459 31.9722 68.4137C32.2467 68.8316 32.6633 69.1273 33.1407 69.2588Z" fill="#E7E7F7"/>
<path d="M49.6362 25.1743C49.6362 20.756 53.218 17.1743 57.6362 17.1743H141.448C145.866 17.1743 149.448 20.756 149.448 25.1743V32.1743H49.6362V25.1743Z" fill="#E7E7F7"/>
<rect x="58.1289" y="37.1743" width="29" height="41" stroke="#E7E7F7" stroke-width="2"/>
<rect x="93.1289" y="47.1743" width="33" height="6" rx="3" fill="#E7E7F7"/>
<rect x="128.129" y="47.1743" width="15" height="6" rx="3" fill="#E7E7F7"/>
<rect x="93.1289" y="57.1743" width="49" height="3" rx="1.5" fill="#ACD2FF"/>
<rect x="93.1289" y="62.1743" width="26" height="3" rx="1.5" fill="#ACD2FF"/>
<rect x="93.1289" y="67.1743" width="14" height="3" rx="1.5" fill="#ACD2FF"/>
<rect x="110.129" y="67.1743" width="32" height="3" rx="1.5" fill="#ACD2FF"/>
<rect x="93.1289" y="72.1743" width="49" height="3" rx="1.5" fill="#ACD2FF"/>
<rect x="121.129" y="62.1743" width="21" height="3" rx="1.5" fill="#ACD2FF"/>
<path d="M99.0469 42.3228C98.9896 42.9295 98.7656 43.4035 98.375 43.7446C97.9844 44.0832 97.4648 44.2524 96.8164 44.2524C96.3633 44.2524 95.9635 44.1457 95.6172 43.9321C95.2734 43.716 95.0078 43.41 94.8203 43.0142C94.6328 42.6183 94.5352 42.1587 94.5273 41.6353V41.104C94.5273 40.5675 94.6224 40.0949 94.8125 39.686C95.0026 39.2772 95.2747 38.9621 95.6289 38.7407C95.9857 38.5194 96.3971 38.4087 96.8633 38.4087C97.4909 38.4087 97.9961 38.5793 98.3789 38.9204C98.7617 39.2616 98.9844 39.7433 99.0469 40.3657H98.0625C98.0156 39.9569 97.8958 39.6626 97.7031 39.4829C97.513 39.3006 97.2331 39.2095 96.8633 39.2095C96.4336 39.2095 96.1029 39.367 95.8711 39.6821C95.6419 39.9946 95.5247 40.4543 95.5195 41.061V41.5649C95.5195 42.1795 95.6289 42.6483 95.8477 42.9712C96.069 43.2941 96.3919 43.4556 96.8164 43.4556C97.2044 43.4556 97.4961 43.3683 97.6914 43.1938C97.8867 43.0194 98.0104 42.729 98.0625 42.3228H99.0469ZM103.14 42.8501H100.937L100.476 44.1743H99.449L101.597 38.4868H102.484L104.636 44.1743H103.605L103.14 42.8501ZM101.215 42.0532H102.863L102.039 39.6938L101.215 42.0532ZM109.82 44.1743H108.832L106.296 40.1392V44.1743H105.308V38.4868H106.296L108.839 42.5376V38.4868H109.82V44.1743ZM111.011 44.1743V38.4868H112.691C113.193 38.4868 113.639 38.5988 114.027 38.8228C114.417 39.0467 114.719 39.3644 114.933 39.7759C115.146 40.1873 115.253 40.6587 115.253 41.1899V41.4751C115.253 42.0142 115.145 42.4881 114.929 42.897C114.715 43.3058 114.409 43.6209 114.011 43.8423C113.615 44.0636 113.161 44.1743 112.648 44.1743H111.011ZM111.999 39.2837V43.3853H112.644C113.162 43.3853 113.559 43.2238 113.835 42.9009C114.114 42.5754 114.256 42.1092 114.261 41.5024V41.186C114.261 40.5688 114.127 40.0975 113.859 39.772C113.59 39.4465 113.201 39.2837 112.691 39.2837H111.999ZM117.304 44.1743H116.319V38.4868H117.304V44.1743ZM118.542 44.1743V38.4868H120.221C120.724 38.4868 121.169 38.5988 121.557 38.8228C121.948 39.0467 122.25 39.3644 122.464 39.7759C122.677 40.1873 122.784 40.6587 122.784 41.1899V41.4751C122.784 42.0142 122.676 42.4881 122.46 42.897C122.246 43.3058 121.94 43.6209 121.542 43.8423C121.146 44.0636 120.692 44.1743 120.178 44.1743H118.542ZM119.53 39.2837V43.3853H120.175C120.693 43.3853 121.09 43.2238 121.366 42.9009C121.645 42.5754 121.787 42.1092 121.792 41.5024V41.186C121.792 40.5688 121.658 40.0975 121.389 39.772C121.121 39.4465 120.732 39.2837 120.221 39.2837H119.53ZM126.889 42.8501H124.686L124.225 44.1743H123.198L125.346 38.4868H126.233L128.385 44.1743H127.354L126.889 42.8501ZM124.963 42.0532H126.612L125.788 39.6938L124.963 42.0532ZM132.698 39.2837H130.924V44.1743H129.944V39.2837H128.186V38.4868H132.698V39.2837ZM136.795 41.6353H134.459V43.3853H137.19V44.1743H133.471V38.4868H137.162V39.2837H134.459V40.854H136.795V41.6353Z" fill="#E7E7F7"/>
<path d="M66.629 60.6743C60.229 74.2743 60.2957 77.6743 61.129 77.6743H83.1289C82.2956 72.5076 79.9289 61.8743 77.1289 60.6743" stroke="#E7E7F7" stroke-width="2"/>
<path d="M72.1289 63.1743C77.6518 63.1743 82.1289 58.6972 82.1289 53.1743C82.1289 47.6515 77.6518 43.1743 72.1289 43.1743C66.6061 43.1743 62.1289 47.6515 62.1289 53.1743C62.1289 58.6972 66.6061 63.1743 72.1289 63.1743Z" stroke="#E7E7F7" stroke-width="2" stroke-linecap="round" stroke-linejoin="round"/>
<path d="M68.1289 55.1743C68.1289 55.1743 69.6289 57.1743 72.1289 57.1743C74.6289 57.1743 76.1289 55.1743 76.1289 55.1743" stroke="#E7E7F7" stroke-width="2" stroke-linecap="round" stroke-linejoin="round"/>
<path d="M69.1289 50.1743H69.1389" stroke="#E7E7F7" stroke-width="2" stroke-linecap="round" stroke-linejoin="round"/>
<path d="M75.1289 50.1743H75.1389" stroke="#E7E7F7" stroke-width="2" stroke-linecap="round" stroke-linejoin="round"/>
</svg>
